<?xml version="1.0" encoding="UTF-8" standalone="no"?>
<!-- Created with Inkscape (http://www.inkscape.org/) -->
<svg xmlns:dc="http://purl.org/dc/elements/1.1/" xmlns:cc="http://creativecommons.org/ns#" xmlns:rdf="http://www.w3.org/1999/02/22-rdf-syntax-ns#" xmlns:svg="http://www.w3.org/2000/svg" xmlns="http://www.w3.org/2000/svg" xmlns:xlink="http://www.w3.org/1999/xlink" xmlns:sodipodi="http://sodipodi.sourceforge.net/DTD/sodipodi-0.dtd" xmlns:inkscape="http://www.inkscape.org/namespaces/inkscape" width="701.28125" height="443.87506" id="svg2" version="1.1" inkscape:version="0.47 r22583" sodipodi:docname="blaam.svg" style="display: inline;">
  <defs id="defs4">
    <linearGradient inkscape:collect="always" id="linearGradient3847">
      <stop style="stop-color: rgb(255, 98, 15); stop-opacity: 1;" offset="0" id="stop3849"/>
      <stop id="stop3861" offset="0.80365902" style="stop-color: rgb(255, 98, 15); stop-opacity: 0.54902;"/>
      <stop style="stop-color: rgb(255, 98, 15); stop-opacity: 0;" offset="1" id="stop3851"/>
    </linearGradient>
    <linearGradient inkscape:collect="always" id="linearGradient3841">
      <stop style="stop-color: rgb(255, 98, 15); stop-opacity: 1;" offset="0" id="stop3843"/>
      <stop style="stop-color: rgb(255, 98, 15); stop-opacity: 0;" offset="1" id="stop3845"/>
    </linearGradient>
    <linearGradient id="linearGradient3825">
      <stop style="stop-color: rgb(230, 182, 113); stop-opacity: 1;" offset="0" id="stop3827"/>
      <stop id="stop3865" offset="0.01575817" style="stop-color: rgb(166, 105, 187); stop-opacity: 0.984314;"/>
      <stop id="stop3863" offset="0.03151634" style="stop-color: rgb(219, 56, 145); stop-opacity: 0.968627;"/>
      <stop id="stop3859" offset="0.06303267" style="stop-color: rgb(255, 97, 85); stop-opacity: 0.937255;"/>
      <stop id="stop3857" offset="0.12606534" style="stop-color: rgb(255, 193, 1); stop-opacity: 0.87451;"/>
      <stop id="stop3855" offset="0.25213069" style="stop-color: rgb(255, 149, 1); stop-opacity: 0.74902;"/>
      <stop id="stop3833" offset="0.50426137" style="stop-color: rgb(255, 61, 1); stop-opacity: 0.498039;"/>
      <stop style="stop-color: rgb(255, 61, 1); stop-opacity: 0;" offset="1" id="stop3829"/>
    </linearGradient>
    <inkscape:path-effect effect="spiro" id="path-effect3689" is_visible="true"/>
    <inkscape:perspective sodipodi:type="inkscape:persp3d" inkscape:vp_x="0 : 526.18109 : 1" inkscape:vp_y="0 : 1000 : 0" inkscape:vp_z="744.09448 : 526.18109 : 1" inkscape:persp3d-origin="372.04724 : 350.78739 : 1" id="perspective10"/>
    <inkscape:perspective id="perspective2881" inkscape:persp3d-origin="0.5 : 0.33333333 : 1" inkscape:vp_z="1 : 0.5 : 1" inkscape:vp_y="0 : 1000 : 0" inkscape:vp_x="0 : 0.5 : 1" sodipodi:type="inkscape:persp3d"/>
    <inkscape:perspective id="perspective2900" inkscape:persp3d-origin="0.5 : 0.33333333 : 1" inkscape:vp_z="1 : 0.5 : 1" inkscape:vp_y="0 : 1000 : 0" inkscape:vp_x="0 : 0.5 : 1" sodipodi:type="inkscape:persp3d"/>
    <inkscape:perspective id="perspective3767" inkscape:persp3d-origin="0.5 : 0.33333333 : 1" inkscape:vp_z="1 : 0.5 : 1" inkscape:vp_y="0 : 1000 : 0" inkscape:vp_x="0 : 0.5 : 1" sodipodi:type="inkscape:persp3d"/>
    <inkscape:perspective id="perspective3789" inkscape:persp3d-origin="0.5 : 0.33333333 : 1" inkscape:vp_z="1 : 0.5 : 1" inkscape:vp_y="0 : 1000 : 0" inkscape:vp_x="0 : 0.5 : 1" sodipodi:type="inkscape:persp3d"/>
    <inkscape:perspective id="perspective3811" inkscape:persp3d-origin="0.5 : 0.33333333 : 1" inkscape:vp_z="1 : 0.5 : 1" inkscape:vp_y="0 : 1000 : 0" inkscape:vp_x="0 : 0.5 : 1" sodipodi:type="inkscape:persp3d"/>
    <inkscape:perspective id="perspective3889" inkscape:persp3d-origin="0.5 : 0.33333333 : 1" inkscape:vp_z="1 : 0.5 : 1" inkscape:vp_y="0 : 1000 : 0" inkscape:vp_x="0 : 0.5 : 1" sodipodi:type="inkscape:persp3d"/>
    <linearGradient inkscape:collect="always" xlink:href="#linearGradient3847-5" id="linearGradient3853-2" x1="24.212133" y1="383.60269" x2="1451.5132" y2="596.13141" gradientUnits="userSpaceOnUse" gradientTransform="matrix(0.953828, 0, 0, 1.2905, 8.51678, -55.1691)"/>
    <linearGradient inkscape:collect="always" id="linearGradient3847-5">
      <stop style="stop-color: rgb(255, 98, 15); stop-opacity: 1;" offset="0" id="stop3849-4"/>
      <stop id="stop3861-7" offset="0.80365902" style="stop-color: rgb(255, 98, 15); stop-opacity: 0.54902;"/>
      <stop style="stop-color: rgb(255, 98, 15); stop-opacity: 0;" offset="1" id="stop3851-4"/>
    </linearGradient>
    <linearGradient inkscape:collect="always" xlink:href="#linearGradient3841-3" id="linearGradient3831-4" x1="898.53925" y1="345.93936" x2="570.33026" y2="-196.14342" gradientUnits="userSpaceOnUse"/>
    <linearGradient inkscape:collect="always" id="linearGradient3841-3">
      <stop style="stop-color: rgb(255, 98, 15); stop-opacity: 1;" offset="0" id="stop3843-0"/>
      <stop style="stop-color: rgb(255, 98, 15); stop-opacity: 0;" offset="1" id="stop3845-7"/>
    </linearGradient>
    <linearGradient y2="-196.14342" x2="570.33026" y1="345.93936" x1="898.53925" gradientUnits="userSpaceOnUse" id="linearGradient3907" xlink:href="#linearGradient3841-3" inkscape:collect="always"/>
    <inkscape:perspective id="perspective3954" inkscape:persp3d-origin="0.5 : 0.33333333 : 1" inkscape:vp_z="1 : 0.5 : 1" inkscape:vp_y="0 : 1000 : 0" inkscape:vp_x="0 : 0.5 : 1" sodipodi:type="inkscape:persp3d"/>
    <linearGradient inkscape:collect="always" xlink:href="#linearGradient3847-5" id="linearGradient3969" gradientUnits="userSpaceOnUse" gradientTransform="matrix(0.953828, 0, 0, 1.2905, 8.51678, -55.1691)" x1="24.212133" y1="383.60269" x2="1451.5132" y2="596.13141"/>
    <linearGradient inkscape:collect="always" xlink:href="#linearGradient3841-3" id="linearGradient3972" gradientUnits="userSpaceOnUse" x1="898.53925" y1="345.93936" x2="570.33026" y2="-196.14342" gradientTransform="matrix(0.953828, 0, 0, 1.2905, 34.074, -88.797)"/>
    <linearGradient inkscape:collect="always" xlink:href="#linearGradient3847-5" id="linearGradient3975" gradientUnits="userSpaceOnUse" gradientTransform="matrix(0.953828, 0, 0, 1.2905, 34.074, -88.797)" x1="24.212133" y1="383.60269" x2="1451.5132" y2="596.13141"/>
    <linearGradient inkscape:collect="always" xlink:href="#linearGradient3841-3" id="linearGradient4004" gradientUnits="userSpaceOnUse" gradientTransform="matrix(0.953828, 0, 0, 1.2905, 38.1094, -398.174)" x1="898.53925" y1="345.93936" x2="570.33026" y2="-196.14342"/>
    <linearGradient inkscape:collect="always" xlink:href="#linearGradient3847-5" id="linearGradient4006" gradientUnits="userSpaceOnUse" gradientTransform="matrix(0.953828, 0, 0, 1.2905, 109.401, -44.4081)" x1="24.212133" y1="383.60269" x2="1451.5132" y2="596.13141"/>
    <linearGradient inkscape:collect="always" xlink:href="#linearGradient3847" id="linearGradient4050" gradientUnits="userSpaceOnUse" x1="24.212133" y1="383.60269" x2="1451.5132" y2="596.13141"/>
    <linearGradient inkscape:collect="always" xlink:href="#linearGradient3841" id="linearGradient4052" gradientUnits="userSpaceOnUse" x1="898.53925" y1="345.93936" x2="570.33026" y2="-196.14342"/>
    <linearGradient inkscape:collect="always" xlink:href="#linearGradient3847" id="linearGradient4083" gradientUnits="userSpaceOnUse" x1="24.212133" y1="383.60269" x2="1451.5132" y2="596.13141"/>
    <linearGradient inkscape:collect="always" xlink:href="#linearGradient3841" id="linearGradient4085" gradientUnits="userSpaceOnUse" x1="898.53925" y1="345.93936" x2="570.33026" y2="-196.14342"/>
    <linearGradient inkscape:collect="always" xlink:href="#linearGradient3841" id="linearGradient4088" gradientUnits="userSpaceOnUse" x1="898.53925" y1="345.93936" x2="570.33026" y2="-196.14342" gradientTransform="translate(-4.03536, 14.7963)"/>
    <linearGradient inkscape:collect="always" xlink:href="#linearGradient3847" id="linearGradient4091" gradientUnits="userSpaceOnUse" x1="24.212133" y1="383.60269" x2="1451.5132" y2="596.13141" gradientTransform="translate(-4.03536, 14.7963)"/>
    <inkscape:perspective id="perspective3686" inkscape:persp3d-origin="0.5 : 0.33333333 : 1" inkscape:vp_z="1 : 0.5 : 1" inkscape:vp_y="0 : 1000 : 0" inkscape:vp_x="0 : 0.5 : 1" sodipodi:type="inkscape:persp3d"/>
    <inkscape:perspective id="perspective3717" inkscape:persp3d-origin="0.5 : 0.33333333 : 1" inkscape:vp_z="1 : 0.5 : 1" inkscape:vp_y="0 : 1000 : 0" inkscape:vp_x="0 : 0.5 : 1" sodipodi:type="inkscape:persp3d"/>
    <inkscape:perspective id="perspective3748" inkscape:persp3d-origin="0.5 : 0.33333333 : 1" inkscape:vp_z="1 : 0.5 : 1" inkscape:vp_y="0 : 1000 : 0" inkscape:vp_x="0 : 0.5 : 1" sodipodi:type="inkscape:persp3d"/>
    <inkscape:perspective id="perspective3794" inkscape:persp3d-origin="0.5 : 0.33333333 : 1" inkscape:vp_z="1 : 0.5 : 1" inkscape:vp_y="0 : 1000 : 0" inkscape:vp_x="0 : 0.5 : 1" sodipodi:type="inkscape:persp3d"/>
  </defs>
  <sodipodi:namedview id="base" pagecolor="#ffffff" bordercolor="#666666" borderopacity="1.0" inkscape:pageopacity="0.0" inkscape:pageshadow="2" inkscape:zoom="0.43601579" inkscape:cx="136.21216" inkscape:cy="173.34974" inkscape:document-units="px" inkscape:current-layer="g3822" showgrid="false" inkscape:window-width="1280" inkscape:window-height="996" inkscape:window-x="0" inkscape:window-y="0" inkscape:window-maximized="1"/>
  <metadata id="metadata7">
    <rdf:RDF>
      <cc:Work rdf:about="">
        <dc:format>image/svg+xml</dc:format>
        <dc:type rdf:resource="http://purl.org/dc/dcmitype/StillImage"/>
        <dc:title/>
      </cc:Work>
    </rdf:RDF>
  </metadata>
  <g inkscape:groupmode="layer" id="layer3" inkscape:label="zig-zag" style="display: inline;" transform="translate(-67.9688, -79.4375)">
    <path id="path3742-7-5" d="m 573.53125,86.84375 -78,7.625 -10.34375,55.125 39.5625,37.03125 c 0.40646,-1.7237 2.10202,-9.06432 2.1875,-9.40625 l 1.5625,12.90625 53.6875,50.28125 -8.65625,-153.5625 z m 34.25,20 c 0,0 -7.38538,79.3538 -14.03125,144.40625 l 43.96875,41.15625 4.3125,-30.53125 19.4375,52.78125 15.125,14.15625 c 0,0 4.24339,-1.40027 12.21875,-5.15625 l 28.34375,-59.875 -3.375,46.40625 c 9.66594,-5.80148 21.09111,-13.28138 34,-22.75 l 14.09375,-165.375 -36.15625,-2.875 c 0,0 -41.86135,126.49604 -42.8125,124.59375 -0.95114,-1.90228 -36.125,-134.09375 -36.125,-134.09375 l -39,-2.84375 z m -173.09375,35.1875 -60.125,7.40625 c -7.0608,11.44474 -14.09447,22.80607 -20.71875,33.5 l -18.6875,155.15625 54.1875,-80.6875 3.46875,-24.0625 3.3125,13.96875 44.34375,-66.0625 -5.78125,-39.21875 z M 255,194.3125 225.40625,196.25 233.59375,303.71875 292,373.75 286.21875,251.5 C 278.21859,237.87007 267.14537,217.42724 255,194.3125 z M 142.875,226.875 76.09375,245.6875 96.5,313.09375 c 21.08312,-39.3884 36.7462,-68.41835 46.375,-86.21875 z m 27.46875,1.03125 40.125,48.0625 c -8.827,-21.50021 -24.69759,-40.23375 -40.125,-48.0625 z" style="fill: rgb(255, 141, 1); fill-opacity: 1; stroke: none;"/>
  </g>
  <g inkscape:groupmode="layer" id="g3732" inkscape:label="Copie de blaam" style="display: inline;" transform="translate(-67.9688, -79.4375)">
    <path style="fill: rgb(255, 141, 0); fill-opacity: 1; stroke: none; display: inline;" d="m 505.875,150 7.15625,86.65625 c 4.04236,-17.32993 5.66417,-24.19787 8.625,-36.84375 L 505.875,150 z m 135.25,14.09375 c 0,0 4.84239,61.2726 9.625,121.4375 l 24.5625,66.6875 24.75,-52.34375 -58.9375,-135.78125 z m -39.96875,12.34375 c -4.0598,42.02104 -9.10219,93.00922 -12.8125,125.6875 l 0.8125,45.4375 40.5,1.8125 5.25,-37.09375 C 623.4057,265.78398 611.03723,216.10517 601.15625,176.4375 z M 400.375,192.53125 c 10e-4,0.0938 0.0745,0.62976 0.15625,1.1875 -0.0424,-0.50087 -0.0847,-0.96867 -0.125,-1.125 -0.0252,-0.0977 -0.032,-0.11459 -0.0312,-0.0625 z m -133.25,0.96875 -4.9375,0.34375 c -6.96771,118.58209 -17.34375,282.625 -17.34375,282.625 l -5.875,-94.78125 C 232.4413,375.53716 225.0691,370.28579 217.03125,366.25 l -0.84375,43.46875 c 12.97192,16.11259 15.50089,37.48069 -1,51.96875 l -0.40625,21.5 c 0,0 -2.17977,-14.32735 -2.875,-18.90625 -6.89394,4.96372 -16.37203,8.91501 -28.90625,11.25 0,0 -8.5128,-29.72078 -15.46875,-54.53125 0.69005,47.69527 0.85711,80.88459 -0.0937,77.5 -1.40498,-5.00103 -11.62712,-87.25741 -22.3125,-175.46875 -6.26755,-23.25014 -15.15913,-56.48604 -15.78125,-60.21875 0,0 3.03206,-3.04883 7.9375,-4.8125 -1.15325,-9.62125 -2.33316,-19.34202 -3.4375,-28.59375 L 120.25,233.25 c 0.2383,48.87456 0.42003,105.04503 0.5625,160.125 l 37.0625,122.4375 c 0,0 82.93525,-11.09414 84.65625,-12.34375 12.43356,-9.02794 20.23875,-20.48653 24.1875,-33 7.9e-4,-20.30379 0.0204,-164.8396 0.40625,-276.96875 z m 133.4375,0.5 c 0.52191,7.11631 1.21148,39.80468 1.875,79.90625 l 12.25,51.6875 -11.4375,2.09375 c 0.21261,14.75897 0.39936,28.96265 0.59375,43.46875 l 13.71875,-0.875 11.40625,60.875 11.34375,-3 C 426.13389,345.34815 402.77289,208.77924 400.5625,194 z m 300.0625,0.125 c -2.6844,7.91578 -5.18442,15.17237 -7.53125,21.96875 5.48662,19.14396 11.39885,39.76019 17.5625,61.4375 l 6.5,-13.75 -2.125,29.1875 c 5.7889,20.38468 10.92011,38.58805 15.875,56.09375 l 11.9375,-3.5 5.9375,-69.8125 C 731.50344,246.41473 714.81406,218.10806 700.625,194.125 z m -473.1875,2 -2.03125,0.125 L 236.375,340.03125 227.4375,196.125 z M 434,203.4375 447.28125,426.3125 474.25,419.15625 C 457.14253,343.06432 434,203.4375 434,203.4375 z m 48.03125,20.125 c -0.004,0.004 -0.002,0.0329 0,0.0625 0.0489,0.88457 4.26287,56.60966 7.4375,114.53125 l 2.28125,-17.3125 12.6875,-0.25 C 493.22093,271.10698 482.28147,223.32778 482.03125,223.5625 z m -318.375,1.65625 c 0.33211,13.80717 0.63639,28.51794 0.96875,43.40625 3.42561,4.20081 6.92427,9.7625 10.375,17.03125 13.18589,27.77528 2.12929,43.73855 -8.90625,52.09375 0.33586,17.09386 0.66571,33.81084 0.9375,49.6875 0.8824,-0.0403 1.75186,-0.0624 2.625,-0.0625 11.89831,-10e-4 22.9305,3.65103 32.0625,9.46875 -1.77652,-11.73896 -3.75241,-24.86049 -5.71875,-37.875 -2.20526,-0.4372 -4.45488,-0.78054 -6.71875,-1.03125 2.12257,-1.24051 4.11281,-2.53894 5.96875,-3.90625 -6.19158,-40.98994 -12.41305,-82.18525 -18.40625,-122.25 -4.39627,-3.06231 -8.86451,-5.28578 -13.1875,-6.5625 z m 370.875,15.21875 3.8125,31.875 -22.03125,4.1875 3.625,43.78125 19.375,-0.40625 6.65625,64.6875 L 577.75,376.96875 534.53125,240.4375 z M 343.65625,267.53125 336.3125,328.5 c 1.74859,47.15833 3.54139,96.53836 4.1875,121.625 l 9.53125,-0.875 0,-14.28125 18.0625,-2.84375 4.75,-58.96875 0.25,0 c -10.65118,-38.017 -21.45067,-76.62499 -29.4375,-105.625 z M 288.96875,309.25 C 276.42128,400.01347 270.86882,443.249 268.5,463.46875 c 0.45285,-2.28049 0.80931,-4.58338 1.03125,-6.90625 L 336.25,450.5 c -1.71877,-11.37058 -4.08929,-29.71785 -7.46875,-59.3125 L 326.25,412.15625 293.90625,414.0625 288.96875,309.25 z m 423.46875,19.125 -1.9375,26.6875 12,-3.53125 -10.0625,-23.15625 z m -122.875,43.03125 0.0625,2.71875 0.0937,-0.0312 -0.15625,-2.6875 z" id="path2904-3-4"/>
  </g>
  <g style="display: inline;" inkscape:label="blaam" id="g3701" inkscape:groupmode="layer" transform="translate(-67.9688, -79.4375)">
    <path style="fill: rgb(249, 0, 218); fill-opacity: 1; stroke: none; display: inline;" d="m 573.53125,86.84375 -78,7.625 L 458,294.65625 l 16.1875,90.4375 9,0.40625 7.5625,-57.09375 -3.125,-164.96875 c 0,0 10.07285,86.14432 18.46875,157.125 L 516.125,320.34375 C 516.05477,306.31233 516.00114,291.57651 516,276.5625 L 503.15625,279 c 0,0 6.5963,-28.25917 13.09375,-56.09375 0.53369,-57.28787 2.09598,-104.94918 6,-102 7.21649,5.45147 21.8625,173.78177 29.09375,262.375 l 4.09375,-0.96875 -0.875,-287.96875 c 0,0 14.28352,178.4142 22.5,282.78125 l 7.25,-1.75 c 0.52565,-20.12128 1.11798,-42.022 1.78125,-65.625 L 573.53125,86.84375 z m 34.25,20 c 0,0 -2.39013,25.56327 -5.625,59.21875 8.22116,53.09087 19.44736,125.94312 27.8125,181 l 12.0625,-85.1875 0.1875,0.53125 c 0.85552,-65.13639 1.77008,-127.05309 2.25,-130.5 0.28253,-2.02918 3.27297,84.18771 8.4375,159.46875 l 22.40625,60.84375 9.21875,-19.5 c 5.59072,-40.59976 10.81196,-92.17127 14.75,-134.6875 -8.54072,25.12909 -15.98135,46.5373 -16.375,45.75 -0.95114,-1.90228 -36.125,-134.09375 -36.125,-134.09375 l -39,-2.84375 z m 117.9375,12.34375 c 0,0 -11.19991,33.83669 -22.15625,66.28125 -1.2402,31.94506 -2.82232,71.74952 -4.59375,116.71875 l 12.65625,-26.75 c 6.79382,-83.10561 12.3125,-149.53125 12.3125,-149.53125 L 725,350.8125 l 12.21875,-3.59375 11.75,-226.1875 -23.25,-1.84375 z m 23.375,1.875 c 0.0693,1.03857 2.44371,36.35581 5.65625,84.75 l 7.125,-83.75 -12.78125,-1 z m -314.40625,20.96875 -77.0625,9.5 -18,149.625 29.71875,115.4375 3.5,-43.4375 8.59375,-0.5625 c -0.29235,-17.47755 -0.31996,-20.71109 -0.65625,-40.75 l -2.21875,0.40625 2,-13.78125 c -1.34621,-80.10352 -2.71875,-159.62821 -2.71875,-156.53125 0,1.90125 5.14658,41.60577 11.875,92.875 l 3.09375,-21.46875 21.875,92.25 -15.28125,2.8125 c 1.97285,14.91482 3.68176,27.79976 5.65625,42.6875 l 12.5,-0.8125 11.40625,60.875 0.75,-0.1875 6.6875,-257.03125 L 453.5,269.5625 434.6875,142.03125 z M 283.4375,192.4375 225.40625,196.25 237.5,355 c 10.32525,40.48435 20.9841,81.96301 29.4375,114.8125 1.30993,-4.31141 2.16403,-8.75256 2.59375,-13.25 l 6.125,-0.5625 -21.1875,-250.5 c 0,0 15.85987,44.16224 34.0625,94.78125 L 283.4375,192.4375 z M 155.78125,224 c -1.8908,0.0121 -3.72437,0.28043 -5.5,0.78125 l -74.1875,20.90625 75.46875,249.21875 -20.46875,-212.8125 51.71875,230.3125 c 1.8804,-0.25784 3.6749,-0.50803 5.65625,-0.78125 l -3.9375,-36.40625 c -0.51121,0.10272 -1.00957,0.21532 -1.53125,0.3125 0,0 -23.22653,-81.11761 -24.28125,-87.125 3.70413,-0.69711 7.36184,-1.03085 10.9375,-1.03125 1.84839,-2.1e-4 3.66603,0.11128 5.46875,0.28125 l -5.6875,-52.6875 c -8.37419,7.71951 -18.21875,10.59375 -18.21875,10.59375 0,0 -20.92386,-77.04314 -21.875,-82.75 0,0 5.90937,-5.9231 14.5625,-6.03125 5.25134,-0.0656 11.51349,2.06037 18.09375,8.90625 l -1.625,-15.125 5.59375,19.8125 c 2.99157,3.96599 6.03001,8.95932 9.03125,15.28125 6.5812,13.8629 7.13155,24.78054 4.65625,33.28125 l 10.8125,38.28125 c 15.96888,-9.75957 23.93974,-23.39854 26.28125,-38.25 -1.533,-13.64501 -2.98466,-26.19648 -4.28125,-37.625 C 201.76134,250.57167 175.9798,223.8712 155.78125,224 z m 178.03125,125.3125 -6.90625,57.5 c 5.87288,16.27355 11.10574,30.74692 15.59375,43.125 l 7.1875,-0.65625 c -4.14981,-25.73511 -9.75862,-61.07804 -15.875,-99.96875 z m -143.09375,8.8125 10.90625,38.65625 c 22.67472,14.38682 33.67026,42.17992 17.25,61.1875 l 13.375,47.375 c 1.95759,-0.30585 3.69796,-0.59671 5.15625,-0.84375 -3.39318,-30.66468 -8.77159,-79.2403 -15.03125,-135.3125 -9.58874,-5.67626 -20.25108,-9.58791 -31.65625,-11.0625 z" id="path3783"/>
  </g>
  <g style="display: inline;" inkscape:label="Copie de blaam texte" id="g3893" inkscape:groupmode="layer" transform="translate(-67.9688, -79.4375)">
    <path style="fill: rgb(148, 1, 255); fill-opacity: 1; stroke: none;" d="m 605.96875,104.71875 c -9.8e-4,0.0103 9.8e-4,0.0209 0,0.0312 -5.99481,63.13927 -11.89949,126.29037 -18.75,189.34375 -2.60109,-46.0835 -5.21412,-92.16634 -7.8125,-138.25 l -10,19.25 c 0,0 -42.5025,-17.27088 -84.53125,-34.6875 -9.03479,48.166 -18.05873,96.33405 -27.09375,144.5 -7.1339,-48.36481 -14.27996,-96.72783 -21.40625,-145.09375 -10.44936,1.27676 -20.89515,2.55942 -31.34375,3.84375 5.09042,73.97078 18.15939,228.95466 15.90625,231.78125 -1.28397,1.61074 -39.85028,-32.7846 -83.53125,-72.78125 -2.63539,21.88542 -5.27061,43.77086 -7.90625,65.65625 l 43.3125,30.25 1.90625,-23.53125 41.1875,-2.625 c 3.83583,20.41619 7.65203,40.83611 11.5,61.25 16.79352,-4.49022 33.60812,-8.90188 50.40625,-13.375 -1.68954,-11.07659 -3.28463,-22.16775 -4.9375,-33.25 2.238,-0.15136 5.05525,0.39052 7.5,0.5 l -4.9375,-144.75 33.59375,19.71875 c 5.74183,-24.60608 11.48114,-49.21276 17.25,-73.8125 l 9.84375,82 -9.90625,1.875 107.40625,63.03125 c 3.09169,-21.86487 6.18826,-43.72906 9.28125,-65.59375 10.73217,29.12389 21.43985,58.25683 32.1875,87.375 13.07853,-27.68427 26.18992,-55.35303 39.28125,-83.03125 -2.03421,27.81228 -4.04449,55.62634 -6.09375,83.4375 12.14908,-3.55138 24.2857,-7.14557 36.4375,-10.6875 3.73854,-43.84292 7.45514,-87.68775 11.1875,-131.53125 -14.69092,-27.87082 -28.06113,-53.14639 -39.53125,-74.6875 -10.79389,32.4408 -21.59538,64.87357 -33.0625,97.03125 -11.88525,-43.31288 -23.37309,-86.73525 -34.96875,-130.125 -14.1163,-0.99612 -28.22638,-2.08252 -42.34375,-3.0625 l -0.0312,0 z M 223.40625,196.375 c 2.10382,27.55211 4.21003,55.10404 6.3125,82.65625 15.97915,78.53818 35.44886,172.18303 39.3125,190.75 1.10629,-3.71081 1.90338,-7.51171 2.3125,-11.375 10.58296,-0.96629 21.16614,-1.91793 31.75,-2.875 C 300.99168,440.66991 298.95026,425.95407 297,411.875 l -1.1875,0.0625 c -0.20711,-4.38547 -0.41785,-8.77078 -0.625,-13.15625 -4.66345,-33.83856 -8.21875,-60.15625 -8.21875,-60.15625 l 5.5625,3.875 c -1.33792,-28.31228 -2.66264,-56.62519 -4,-84.9375 -27.08257,-25.15875 -51.33749,-47.94718 -65.125,-61.1875 z m -106.75,190.125 c 9.34397,30.86452 18.68389,61.73026 28.03125,92.59375 14.78228,7.07445 36.4622,17.40306 66.15625,31.5 10.91194,-1.56679 21.79279,-3.28161 32.59375,-5.34375 9.92632,-6.87285 17.79711,-16.57452 22.6875,-27.59375 -5.07174,-3.04018 -20.83789,-12.51016 -44.75,-26.9375 -4.88844,9.04348 -14.35704,15.76895 -24.15625,18.90625 -4.0794,1.53293 -8.49194,2.73953 -12.78125,3.5625 C 179.29496,455.14 174.10715,437.10719 169.0625,419.03125 146.51691,405.28658 126.55527,392.96004 116.65625,386.5 z" id="path4036"/>
  </g>
  <g inkscape:groupmode="layer" id="g3822" inkscape:label="blaam texte" style="display: inline;" transform="translate(-67.9688, -79.4375)">
    <path sodipodi:type="inkscape:offset" inkscape:radius="0" inkscape:original="M 577.75 81.9375 L 575.1875 82.15625 L 573.125 82.34375 L 573.09375 82.34375 C 546.59568 84.940567 520.09441 87.511883 493.59375 90.125 L 491.71875 90.3125 L 491.375 92.15625 C 480.26178 151.35306 469.16494 210.55206 458.0625 269.75 C 451.65344 226.31263 445.24392 182.87527 438.84375 139.4375 L 438.5 137.03125 L 436.0625 137.34375 C 409.20377 140.6255 382.35181 143.92331 355.5 147.28125 L 353.5625 147.5 L 353.34375 149.4375 C 342.96215 235.58278 332.59514 321.72949 322.21875 407.875 L 298.1875 409.28125 C 294.73836 336.24993 291.28909 263.21866 287.84375 190.1875 L 287.71875 187.65625 L 285.1875 187.8125 C 264.48354 189.14715 243.78815 190.54096 223.09375 191.875 L 220.5625 192.03125 L 220.75 194.5625 C 225.2671 253.7181 229.76632 312.87527 234.28125 372.03125 C 224.31404 364.35892 212.81748 358.58621 200.46875 355.5625 C 216.44988 342.78392 224.19064 321.62945 221.59375 301.46875 C 221.59275 301.45855 221.59475 301.4476 221.59375 301.4375 C 218.17778 272.66791 202.60355 245.23659 179.3125 228.03125 C 169.28731 220.6187 155.60352 216.71842 143.25 222.0625 C 119.80191 228.67807 96.354402 235.27819 72.90625 241.90625 L 70.46875 242.59375 L 71.1875 245.03125 C 98.810684 336.27118 126.42336 427.51423 154.0625 518.75 L 154.6875 520.8125 L 156.84375 520.5 C 185.74668 516.26118 215.04497 513.22899 243.90625 507.71875 L 244.4375 507.59375 L 244.875 507.3125 C 260.33462 496.60846 270.91124 479.36914 273.5 460.71875 C 299.74573 458.32517 325.99868 455.99697 352.25 453.5625 L 353.9375 453.40625 L 354.4375 451.78125 C 355.51989 448.11484 354.33719 444.29984 354.21875 441.5 C 354.15955 440.10008 354.3824 439.09022 354.53125 438.84375 C 354.6801 438.59728 354.55555 438.47659 355.875 438.53125 L 356.5 438.5625 L 357.0625 438.28125 C 358.20756 437.73606 361.86051 437.75607 365.28125 437.40625 C 366.99162 437.23134 368.74436 436.96524 370.34375 435.8125 C 371.84425 434.73103 372.72795 432.66091 372.6875 430.5 L 372.75 430.5 L 377.03125 377.40625 L 413.84375 375.0625 C 417.54109 394.74868 421.22644 414.43745 424.9375 434.125 L 425.4375 436.78125 L 428.0625 436.0625 C 444.84849 431.57429 461.66472 427.16219 478.46875 422.6875 L 480.625 422.125 L 480.28125 419.90625 C 478.74937 409.86331 477.30542 399.78681 475.8125 389.71875 C 477.71593 389.92068 479.84175 390.17285 482.0625 390.03125 C 483.75749 389.92317 485.73663 389.46354 487.0625 387.8125 C 488.27201 386.30637 488.49826 384.25229 488.1875 381.96875 L 495.6875 325.28125 L 535.25 324.46875 C 537.41247 345.40227 539.52261 366.34206 541.71875 387.28125 L 542.03125 390.125 L 544.8125 389.46875 C 560.6813 385.67985 576.50999 381.85816 592.375 378.09375 L 594.4375 377.59375 L 594.3125 375.53125 C 593.87785 367.77883 593.43754 360.00061 593 352.25 C 605.75325 352.82323 618.50757 353.37193 631.25 353.96875 L 633.53125 354.0625 L 633.84375 351.8125 C 637.21289 327.92635 640.61783 304.04278 644 280.15625 C 653.58712 306.18515 663.14403 332.22493 672.75 358.25 L 674.8125 363.8125 L 677.34375 358.4375 C 688.51679 334.78671 699.71724 311.14582 710.90625 287.5 C 709.20238 310.86561 707.50265 334.23211 705.78125 357.59375 L 705.53125 361.1875 L 708.96875 360.1875 C 721.12347 356.63447 733.26133 353.03992 745.40625 349.5 L 747.0625 349 L 747.21875 347.3125 C 753.6673 271.68857 760.11898 196.06542 766.53125 120.4375 L 766.75 117.9375 L 764.21875 117.71875 C 750.98002 116.67216 737.74007 115.61517 724.5 114.5625 L 722.5625 114.40625 L 721.9375 116.28125 C 709.31697 154.08739 696.86137 191.91078 683.625 229.40625 C 672.50264 188.70392 661.64802 147.90425 650.75 107.125 L 650.3125 105.40625 L 648.53125 105.28125 C 634.41497 104.28513 620.2963 103.20015 606.15625 102.21875 L 603.71875 102.0625 L 603.46875 104.46875 C 598.46675 157.1512 593.41284 209.82118 587.9375 262.4375 C 584.59454 203.12524 581.26641 143.81231 577.90625 84.5 L 577.75 81.9375 z M 573.0625 87.40625 C 576.9675 156.35215 580.82712 225.30189 584.71875 294.25 L 589.71875 294.375 C 596.48494 232.0977 602.33368 169.74196 608.25 107.40625 C 620.96045 108.29886 633.67811 109.25179 646.40625 110.15625 C 657.84487 152.9694 669.17415 195.80773 680.90625 238.5625 L 683 246.21875 L 685.65625 238.75 C 699.7228 199.30263 712.80577 159.4527 726.0625 119.71875 C 737.81234 120.65328 749.56089 121.60108 761.3125 122.53125 C 755.01878 196.75066 748.70366 270.97012 742.375 345.1875 C 731.9182 348.23964 721.47578 351.31514 711.03125 354.375 C 712.98932 327.75909 714.92848 301.14456 716.875 274.53125 L 712.125 273.28125 C 699.88091 299.1682 687.61208 325.04415 675.375 350.9375 C 665.31729 323.67464 655.29886 296.39458 645.25 269.125 L 640.4375 269.65625 C 636.70212 296.06204 632.94536 322.4653 629.21875 348.875 C 616.29696 348.27545 603.38133 347.70947 590.46875 347.125 L 587.6875 347 L 587.84375 349.78125 C 588.29407 357.77059 588.73875 365.73107 589.1875 373.71875 C 574.93702 377.10446 560.6762 380.5344 546.4375 383.9375 C 544.26746 363.18518 542.14817 342.42005 540 321.65625 L 539.75 319.375 L 537.4375 319.40625 L 493.4375 320.3125 L 491.3125 320.34375 L 491.03125 322.46875 L 483.21875 381.46875 L 483.15625 381.84375 L 483.21875 382.21875 C 483.54635 384.02884 483.23195 384.5932 483.15625 384.6875 C 483.08055 384.7818 482.77328 384.99725 481.75 385.0625 C 479.70345 385.19299 476.12146 384.30112 472.71875 384.53125 L 470 384.71875 L 470.40625 387.40625 C 471.94752 397.74027 473.43267 408.08731 475 418.4375 C 459.79731 422.48093 444.58521 426.50319 429.375 430.5625 C 425.69497 411.02572 422.04664 391.47979 418.375 371.9375 L 417.96875 369.78125 L 415.75 369.90625 L 374.5625 372.53125 L 372.40625 372.6875 L 372.21875 374.84375 L 367.75 430.09375 L 367.75 430.28125 L 367.75 430.5 C 367.8383 431.60353 367.759 431.51863 367.4375 431.75 C 367.11649 431.98137 366.11254 432.29816 364.75 432.4375 C 362.06733 432.71184 358.38425 432.20765 355.0625 433.71875 C 353.03591 433.91933 351.16198 434.77114 350.25 436.28125 C 349.1774 438.05732 349.14332 439.90449 349.21875 441.6875 C 349.33464 444.42685 349.61391 446.98976 349.625 448.75 C 323.46754 451.17059 297.29497 453.51677 271.125 455.90625 L 269.0625 456.09375 L 268.84375 458.15625 C 266.96334 475.91294 256.98395 492.59663 242.40625 502.875 C 214.70843 508.13122 186.39392 511.2109 158.25 515.28125 C 131.06337 425.53782 103.92152 335.77997 76.75 246.03125 C 99.372692 239.63866 121.99659 233.25931 144.625 226.875 L 144.8125 226.84375 L 144.96875 226.75 C 155.32667 222.12889 167.28373 225.35545 176.3125 232.03125 C 198.42152 248.36341 213.41433 274.65743 216.65625 302.03125 L 216.65625 302.0625 C 219.25504 322.15551 210.65292 343.59007 193.53125 354.625 L 188.15625 358.0625 L 194.4375 359.1875 C 209.6481 361.88184 224.00265 369.21576 235.59375 379.28125 L 240.1875 383.28125 L 239.71875 377.21875 C 235.12649 317.05206 230.53167 256.88553 225.9375 196.71875 C 244.95324 195.48863 263.96107 194.19834 282.96875 192.96875 C 286.41433 266.00032 289.86351 339.03144 293.3125 412.0625 L 293.4375 414.59375 L 295.96875 414.4375 L 324.59375 412.75 L 326.65625 412.625 L 326.90625 410.5625 C 337.28913 324.36412 347.67481 238.16613 358.0625 151.96875 C 383.44872 148.79681 408.85286 145.69792 434.25 142.59375 C 441.25892 190.15866 448.29689 237.71839 455.3125 285.28125 L 460.25 285.375 C 472.15752 221.89569 484.05258 158.41416 495.96875 94.9375 C 521.66209 92.405868 547.36381 89.924395 573.0625 87.40625 z M 523.84375 188.125 C 516.98266 217.38226 510.17986 246.64844 503.34375 275.90625 L 502.46875 279.65625 L 506.25 278.9375 L 536.59375 273.15625 L 538.875 272.71875 L 538.59375 270.375 L 528.75 188.375 L 523.84375 188.125 z M 525.5 203.03125 L 533.375 268.65625 L 509.09375 273.28125 C 514.56309 249.86334 520.0228 226.44392 525.5 203.03125 z M 395.71875 243.4375 L 390.8125 243.65625 L 378.46875 329.4375 L 377.96875 332.875 L 381.40625 332.25 L 412.71875 326.46875 L 415.28125 325.96875 L 414.6875 323.4375 L 395.71875 243.4375 z M 143.9375 256.28125 C 138.78899 256.36345 133.9598 258.40805 130.09375 261.5 L 128.875 262.46875 L 129.21875 264 C 135.48028 290.57849 143.22762 317.16033 150.1875 343.59375 L 150.875 346.3125 L 153.5 345.3125 C 160.97884 342.3991 167.88547 337.95581 173.28125 331.71875 C 173.29125 331.70755 173.3026 331.6987 173.3125 331.6875 C 179.45908 324.75715 181.70384 316.10637 181.40625 307.5625 C 181.10867 299.01903 178.33999 290.51632 174.40625 283.28125 C 174.40025 283.26945 174.3811 283.2618 174.375 283.25 C 171.42671 277.60931 167.85658 271.17362 163.03125 265.9375 C 158.19578 260.69038 151.92897 256.59416 144.0625 256.28125 L 144 256.28125 L 143.9375 256.28125 z M 393.875 257.34375 L 409.21875 322 L 383.90625 326.6875 L 393.875 257.34375 z M 143.875 261.28125 C 143.8964 261.2821 143.9162 261.28033 143.9375 261.28125 C 150.17763 261.54949 155.08146 264.68736 159.34375 269.3125 C 163.62062 273.95346 167.06946 280.04506 169.96875 285.59375 L 169.96875 285.625 L 170 285.625 C 173.62189 292.276 176.14211 300.16657 176.40625 307.75 C 176.67039 315.33343 174.73952 322.55057 169.53125 328.40625 L 169.5 328.4375 C 165.32168 333.27716 160.05167 336.83781 154.21875 339.46875 C 147.59563 314.49281 140.45187 289.50273 134.53125 264.625 C 137.35466 262.6963 140.54114 261.36212 143.875 261.28125 z M 169.6875 386.875 C 166.6579 386.871 163.70482 387.16855 160.8125 387.53125 L 157.96875 387.875 L 158.71875 390.65625 C 166.14424 418.5157 174.14176 446.18717 182.03125 473.875 L 182.65625 476.0625 L 184.90625 475.65625 C 189.28302 474.8165 193.76855 473.5695 197.96875 472 C 198.00875 471.9872 198.05375 471.98165 198.09375 471.96875 C 205.91341 469.44268 213.50318 464.78535 219.03125 458.4375 C 224.58762 452.05716 228.05827 443.84612 227.1875 434.65625 C 224.29441 406.72713 196.72087 386.72108 169.6875 386.875 z M 169.6875 391.875 C 194.20969 391.73538 219.60955 410.26933 222.1875 435.15625 C 222.91604 442.84507 220.10215 449.58455 215.25 455.15625 C 210.39785 460.72795 203.50527 464.9972 196.46875 467.25 L 196.40625 467.28125 L 196.34375 467.28125 C 193.11178 468.49574 189.63866 469.45627 186.1875 470.21875 C 178.78203 444.24955 171.32673 418.29758 164.34375 392.25 C 166.13197 392.07862 167.93304 391.87268 169.6875 391.875 z " xlink:href="#path3830" style="fill: none; stroke: rgb(0, 0, 0); stroke-width: 5; stroke-linecap: butt; stroke-linejoin: miter; stroke-miterlimit: 4; stroke-opacity: 1; stroke-dasharray: none;" id="path3901" inkscape:href="#path3830" d="m 577.75,81.9375 -2.5625,0.21875 -2.0625,0.1875 -0.0312,0 c -26.49807,2.596817 -52.99934,5.168133 -79.5,7.78125 l -1.875,0.1875 -0.34375,1.84375 C 480.26178,151.35306 469.16494,210.55206 458.0625,269.75 451.65344,226.31263 445.24392,182.87527 438.84375,139.4375 l -0.34375,-2.40625 -2.4375,0.3125 c -26.85873,3.28175 -53.71069,6.57956 -80.5625,9.9375 l -1.9375,0.21875 -0.21875,1.9375 c -10.3816,86.14528 -20.74861,172.29199 -31.125,258.4375 l -24.03125,1.40625 C 294.73836,336.24993 291.28909,263.21866 287.84375,190.1875 l -0.125,-2.53125 -2.53125,0.15625 c -20.70396,1.33465 -41.39935,2.72846 -62.09375,4.0625 l -2.53125,0.15625 0.1875,2.53125 c 4.5171,59.1556 9.01632,118.31277 13.53125,177.46875 -9.96721,-7.67233 -21.46377,-13.44504 -33.8125,-16.46875 15.98113,-12.77858 23.72189,-33.93305 21.125,-54.09375 -0.001,-0.0102 0.001,-0.0211 0,-0.0312 -3.41597,-28.76959 -18.9902,-56.20091 -42.28125,-73.40625 -10.02519,-7.41255 -23.70898,-11.31283 -36.0625,-5.96875 -23.44809,6.61557 -46.895598,13.21569 -70.34375,19.84375 l -2.4375,0.6875 0.71875,2.4375 c 27.623184,91.23993 55.23586,182.48298 82.875,273.71875 l 0.625,2.0625 2.15625,-0.3125 c 28.90293,-4.23882 58.20122,-7.27101 87.0625,-12.78125 l 0.53125,-0.125 0.4375,-0.28125 c 15.45962,-10.70404 26.03624,-27.94336 28.625,-46.59375 26.24573,-2.39358 52.49868,-4.72178 78.75,-7.15625 l 1.6875,-0.15625 0.5,-1.625 c 1.08239,-3.66641 -0.10031,-7.48141 -0.21875,-10.28125 -0.0592,-1.39992 0.16365,-2.40978 0.3125,-2.65625 0.14885,-0.24647 0.0243,-0.36716 1.34375,-0.3125 l 0.625,0.0312 0.5625,-0.28125 c 1.14506,-0.54519 4.79801,-0.52518 8.21875,-0.875 1.71037,-0.17491 3.46311,-0.44101 5.0625,-1.59375 1.5005,-1.08147 2.3842,-3.15159 2.34375,-5.3125 l 0.0625,0 4.28125,-53.09375 36.8125,-2.34375 c 3.69734,19.68618 7.38269,39.37495 11.09375,59.0625 l 0.5,2.65625 2.625,-0.71875 c 16.78599,-4.48821 33.60222,-8.90031 50.40625,-13.375 l 2.15625,-0.5625 -0.34375,-2.21875 c -1.53188,-10.04294 -2.97583,-20.11944 -4.46875,-30.1875 1.90343,0.20193 4.02925,0.4541 6.25,0.3125 1.69499,-0.10808 3.67413,-0.56771 5,-2.21875 1.20951,-1.50613 1.43576,-3.56021 1.125,-5.84375 l 7.5,-56.6875 39.5625,-0.8125 c 2.16247,20.93352 4.27261,41.87331 6.46875,62.8125 l 0.3125,2.84375 2.78125,-0.65625 c 15.8688,-3.7889 31.69749,-7.61059 47.5625,-11.375 l 2.0625,-0.5 -0.125,-2.0625 C 593.87785,367.77883 593.43754,360.00061 593,352.25 c 12.75325,0.57323 25.50757,1.12193 38.25,1.71875 l 2.28125,0.0937 0.3125,-2.25 c 3.36914,-23.88615 6.77408,-47.76972 10.15625,-71.65625 9.58712,26.0289 19.14403,52.06868 28.75,78.09375 l 2.0625,5.5625 2.53125,-5.375 c 11.17304,-23.65079 22.37349,-47.29168 33.5625,-70.9375 -1.70387,23.36561 -3.4036,46.73211 -5.125,70.09375 l -0.25,3.59375 3.4375,-1 c 12.15472,-3.55303 24.29258,-7.14758 36.4375,-10.6875 l 1.65625,-0.5 0.15625,-1.6875 c 6.44855,-75.62393 12.90023,-151.24708 19.3125,-226.875 l 0.21875,-2.5 -2.53125,-0.21875 C 750.98002,116.67216 737.74007,115.61517 724.5,114.5625 l -1.9375,-0.15625 -0.625,1.875 c -12.62053,37.80614 -25.07613,75.62953 -38.3125,113.125 -11.12236,-40.70233 -21.97698,-81.502 -32.875,-122.28125 l -0.4375,-1.71875 -1.78125,-0.125 c -14.11628,-0.99612 -28.23495,-2.0811 -42.375,-3.0625 l -2.4375,-0.15625 -0.25,2.40625 C 598.46675,157.1512 593.41284,209.82118 587.9375,262.4375 584.59454,203.12524 581.26641,143.81231 577.90625,84.5 L 577.75,81.9375 z m -4.6875,5.46875 c 3.905,68.9459 7.76462,137.89564 11.65625,206.84375 l 5,0.125 c 6.76619,-62.2773 12.61493,-124.63304 18.53125,-186.96875 12.71045,0.89261 25.42811,1.84554 38.15625,2.75 11.43862,42.81315 22.7679,85.65148 34.5,128.40625 L 683,246.21875 685.65625,238.75 c 14.06655,-39.44737 27.14952,-79.2973 40.40625,-119.03125 11.74984,0.93453 23.49839,1.88233 35.25,2.8125 -6.29372,74.21941 -12.60884,148.43887 -18.9375,222.65625 -10.4568,3.05214 -20.89922,6.12764 -31.34375,9.1875 1.95807,-26.61591 3.89723,-53.23044 5.84375,-79.84375 l -4.75,-1.25 c -12.24409,25.88695 -24.51292,51.7629 -36.75,77.65625 -10.05771,-27.26286 -20.07614,-54.54292 -30.125,-81.8125 l -4.8125,0.53125 c -3.73538,26.40579 -7.49214,52.80905 -11.21875,79.21875 -12.92179,-0.59955 -25.83742,-1.16553 -38.75,-1.75 L 587.6875,347 l 0.15625,2.78125 c 0.45032,7.98934 0.895,15.94982 1.34375,23.9375 -14.25048,3.38571 -28.5113,6.81565 -42.75,10.21875 -2.17004,-20.75232 -4.28933,-41.51745 -6.4375,-62.28125 l -0.25,-2.28125 -2.3125,0.0312 -44,0.90625 -2.125,0.0312 -0.28125,2.125 -7.8125,59 -0.0625,0.375 0.0625,0.375 c 0.3276,1.81009 0.0132,2.37445 -0.0625,2.46875 -0.0757,0.0943 -0.38297,0.30975 -1.40625,0.375 -2.04655,0.13049 -5.62854,-0.76138 -9.03125,-0.53125 l -2.71875,0.1875 0.40625,2.6875 c 1.54127,10.33402 3.02642,20.68106 4.59375,31.03125 -15.20269,4.04343 -30.41479,8.06569 -45.625,12.125 -3.68003,-19.53678 -7.32836,-39.08271 -11,-58.625 l -0.40625,-2.15625 -2.21875,0.125 -41.1875,2.625 -2.15625,0.15625 -0.1875,2.15625 -4.46875,55.25 0,0.1875 0,0.21875 c 0.0883,1.10353 0.009,1.01863 -0.3125,1.25 -0.32101,0.23137 -1.32496,0.54816 -2.6875,0.6875 -2.68267,0.27434 -6.36575,-0.22985 -9.6875,1.28125 -2.02659,0.20058 -3.90052,1.05239 -4.8125,2.5625 -1.0726,1.77607 -1.10668,3.62324 -1.03125,5.40625 0.11589,2.73935 0.39516,5.30226 0.40625,7.0625 -26.15746,2.42059 -52.33003,4.76677 -78.5,7.15625 l -2.0625,0.1875 -0.21875,2.0625 c -1.88041,17.75669 -11.8598,34.44038 -26.4375,44.71875 -27.69782,5.25622 -56.01233,8.3359 -84.15625,12.40625 -27.18663,-89.74343 -54.32848,-179.50128 -81.5,-269.25 22.622692,-6.39259 45.24659,-12.77194 67.875,-19.15625 l 0.1875,-0.0312 0.15625,-0.0937 c 10.35792,-4.62111 22.31498,-1.39455 31.34375,5.28125 22.10902,16.33216 37.10183,42.62618 40.34375,70 l 0,0.0312 c 2.59879,20.09301 -6.00333,41.52757 -23.125,52.5625 l -5.375,3.4375 6.28125,1.125 c 15.2106,2.69434 29.56515,10.02826 41.15625,20.09375 l 4.59375,4 -0.46875,-6.0625 c -4.59226,-60.16669 -9.18708,-120.33322 -13.78125,-180.5 19.01574,-1.23012 38.02357,-2.52041 57.03125,-3.75 3.44558,73.03157 6.89476,146.06269 10.34375,219.09375 l 0.125,2.53125 2.53125,-0.15625 28.625,-1.6875 2.0625,-0.125 0.25,-2.0625 c 10.38288,-86.19838 20.76856,-172.39637 31.15625,-258.59375 25.38622,-3.17194 50.79036,-6.27083 76.1875,-9.375 7.00892,47.56491 14.04689,95.12464 21.0625,142.6875 l 4.9375,0.0937 c 11.90752,-63.47931 23.80258,-126.96084 35.71875,-190.4375 25.69334,-2.531632 51.39506,-5.013105 77.09375,-7.53125 z M 523.84375,188.125 c -6.86109,29.25726 -13.66389,58.52344 -20.5,87.78125 l -0.875,3.75 3.78125,-0.71875 30.34375,-5.78125 2.28125,-0.4375 -0.28125,-2.34375 -9.84375,-82 -4.90625,-0.25 z m 1.65625,14.90625 7.875,65.625 -24.28125,4.625 c 5.46934,-23.41791 10.92905,-46.83733 16.40625,-70.25 z m -129.78125,40.40625 -4.90625,0.21875 -12.34375,85.78125 -0.5,3.4375 3.4375,-0.625 31.3125,-5.78125 2.5625,-0.5 -0.59375,-2.53125 -18.96875,-80 z M 143.9375,256.28125 c -5.14851,0.0822 -9.9777,2.1268 -13.84375,5.21875 L 128.875,262.46875 129.21875,264 c 6.26153,26.57849 14.00887,53.16033 20.96875,79.59375 l 0.6875,2.71875 2.625,-1 c 7.47884,-2.9134 14.38547,-7.35669 19.78125,-13.59375 0.01,-0.0112 0.0214,-0.0201 0.0312,-0.0312 6.14658,-6.93035 8.39134,-15.58113 8.09375,-24.125 -0.29758,-8.54347 -3.06626,-17.04618 -7,-24.28125 -0.006,-0.0118 -0.0251,-0.0195 -0.0312,-0.0312 -2.94829,-5.64069 -6.51842,-12.07638 -11.34375,-17.3125 -4.83547,-5.24712 -11.10228,-9.34334 -18.96875,-9.65625 l -0.0625,0 -0.0625,0 z m 249.9375,1.0625 15.34375,64.65625 -25.3125,4.6875 9.96875,-69.34375 z m -250,3.9375 c 0.0214,8.5e-4 0.0412,-9.2e-4 0.0625,0 6.24013,0.26824 11.14396,3.40611 15.40625,8.03125 4.27687,4.64096 7.72571,10.73256 10.625,16.28125 l 0,0.0312 0.0312,0 c 3.62189,6.651 6.14211,14.54157 6.40625,22.125 0.26414,7.58343 -1.66673,14.80057 -6.875,20.65625 l -0.0312,0.0312 c -4.17832,4.83966 -9.44833,8.40031 -15.28125,11.03125 -6.62312,-24.97594 -13.76688,-49.96602 -19.6875,-74.84375 2.82341,-1.9287 6.00989,-3.26288 9.34375,-3.34375 z M 169.6875,386.875 c -3.0296,-0.004 -5.98268,0.29355 -8.875,0.65625 l -2.84375,0.34375 0.75,2.78125 c 7.42549,27.85945 15.42301,55.53092 23.3125,83.21875 l 0.625,2.1875 2.25,-0.40625 c 4.37677,-0.83975 8.8623,-2.08675 13.0625,-3.65625 0.04,-0.0128 0.085,-0.0183 0.125,-0.0312 7.81966,-2.52607 15.40943,-7.1834 20.9375,-13.53125 5.55637,-6.38034 9.02702,-14.59138 8.15625,-23.78125 -2.89309,-27.92912 -30.46663,-47.93517 -57.5,-47.78125 z m 0,5 c 24.52219,-0.13962 49.92205,18.39433 52.5,43.28125 0.72854,7.68882 -2.08535,14.4283 -6.9375,20 -4.85215,5.5717 -11.74473,9.84095 -18.78125,12.09375 l -0.0625,0.0312 -0.0625,0 c -3.23197,1.21449 -6.70509,2.17502 -10.15625,2.9375 -7.40547,-25.9692 -14.86077,-51.92117 -21.84375,-77.96875 1.78822,-0.17138 3.58929,-0.37732 5.34375,-0.375 z"/>
    <path sodipodi:type="inkscape:offset" inkscape:radius="0" inkscape:original="M 577.75 81.9375 L 575.1875 82.15625 L 573.125 82.34375 L 573.09375 82.34375 C 546.59568 84.940567 520.09441 87.511883 493.59375 90.125 L 491.71875 90.3125 L 491.375 92.15625 C 480.26178 151.35306 469.16494 210.55206 458.0625 269.75 C 451.65344 226.31263 445.24392 182.87527 438.84375 139.4375 L 438.5 137.03125 L 436.0625 137.34375 C 409.20377 140.6255 382.35181 143.92331 355.5 147.28125 L 353.5625 147.5 L 353.34375 149.4375 C 342.96215 235.58278 332.59514 321.72949 322.21875 407.875 L 298.1875 409.28125 C 294.73836 336.24993 291.28909 263.21866 287.84375 190.1875 L 287.71875 187.65625 L 285.1875 187.8125 C 264.48354 189.14715 243.78815 190.54096 223.09375 191.875 L 220.5625 192.03125 L 220.75 194.5625 C 225.2671 253.7181 229.76632 312.87527 234.28125 372.03125 C 224.31404 364.35892 212.81748 358.58621 200.46875 355.5625 C 216.44988 342.78392 224.19064 321.62945 221.59375 301.46875 C 221.59275 301.45855 221.59475 301.4476 221.59375 301.4375 C 218.17778 272.66791 202.60355 245.23659 179.3125 228.03125 C 169.28731 220.6187 155.60352 216.71842 143.25 222.0625 C 119.80191 228.67807 96.354402 235.27819 72.90625 241.90625 L 70.46875 242.59375 L 71.1875 245.03125 C 98.810684 336.27118 126.42336 427.51423 154.0625 518.75 L 154.6875 520.8125 L 156.84375 520.5 C 185.74668 516.26118 215.04497 513.22899 243.90625 507.71875 L 244.4375 507.59375 L 244.875 507.3125 C 260.33462 496.60846 270.91124 479.36914 273.5 460.71875 C 299.74573 458.32517 325.99868 455.99697 352.25 453.5625 L 353.9375 453.40625 L 354.4375 451.78125 C 355.51989 448.11484 354.33719 444.29984 354.21875 441.5 C 354.15955 440.10008 354.3824 439.09022 354.53125 438.84375 C 354.6801 438.59728 354.55555 438.47659 355.875 438.53125 L 356.5 438.5625 L 357.0625 438.28125 C 358.20756 437.73606 361.86051 437.75607 365.28125 437.40625 C 366.99162 437.23134 368.74436 436.96524 370.34375 435.8125 C 371.84425 434.73103 372.72795 432.66091 372.6875 430.5 L 372.75 430.5 L 377.03125 377.40625 L 413.84375 375.0625 C 417.54109 394.74868 421.22644 414.43745 424.9375 434.125 L 425.4375 436.78125 L 428.0625 436.0625 C 444.84849 431.57429 461.66472 427.16219 478.46875 422.6875 L 480.625 422.125 L 480.28125 419.90625 C 478.74937 409.86331 477.30542 399.78681 475.8125 389.71875 C 477.71593 389.92068 479.84175 390.17285 482.0625 390.03125 C 483.75749 389.92317 485.73663 389.46354 487.0625 387.8125 C 488.27201 386.30637 488.49826 384.25229 488.1875 381.96875 L 495.6875 325.28125 L 535.25 324.46875 C 537.41247 345.40227 539.52261 366.34206 541.71875 387.28125 L 542.03125 390.125 L 544.8125 389.46875 C 560.6813 385.67985 576.50999 381.85816 592.375 378.09375 L 594.4375 377.59375 L 594.3125 375.53125 C 593.87785 367.77883 593.43754 360.00061 593 352.25 C 605.75325 352.82323 618.50757 353.37193 631.25 353.96875 L 633.53125 354.0625 L 633.84375 351.8125 C 637.21289 327.92635 640.61783 304.04278 644 280.15625 C 653.58712 306.18515 663.14403 332.22493 672.75 358.25 L 674.8125 363.8125 L 677.34375 358.4375 C 688.51679 334.78671 699.71724 311.14582 710.90625 287.5 C 709.20238 310.86561 707.50265 334.23211 705.78125 357.59375 L 705.53125 361.1875 L 708.96875 360.1875 C 721.12347 356.63447 733.26133 353.03992 745.40625 349.5 L 747.0625 349 L 747.21875 347.3125 C 753.6673 271.68857 760.11898 196.06542 766.53125 120.4375 L 766.75 117.9375 L 764.21875 117.71875 C 750.98002 116.67216 737.74007 115.61517 724.5 114.5625 L 722.5625 114.40625 L 721.9375 116.28125 C 709.31697 154.08739 696.86137 191.91078 683.625 229.40625 C 672.50264 188.70392 661.64802 147.90425 650.75 107.125 L 650.3125 105.40625 L 648.53125 105.28125 C 634.41497 104.28513 620.2963 103.20015 606.15625 102.21875 L 603.71875 102.0625 L 603.46875 104.46875 C 598.46675 157.1512 593.41284 209.82118 587.9375 262.4375 C 584.59454 203.12524 581.26641 143.81231 577.90625 84.5 L 577.75 81.9375 z M 573.0625 87.40625 C 576.9675 156.35215 580.82712 225.30189 584.71875 294.25 L 589.71875 294.375 C 596.48494 232.0977 602.33368 169.74196 608.25 107.40625 C 620.96045 108.29886 633.67811 109.25179 646.40625 110.15625 C 657.84487 152.9694 669.17415 195.80773 680.90625 238.5625 L 683 246.21875 L 685.65625 238.75 C 699.7228 199.30263 712.80577 159.4527 726.0625 119.71875 C 737.81234 120.65328 749.56089 121.60108 761.3125 122.53125 C 755.01878 196.75066 748.70366 270.97012 742.375 345.1875 C 731.9182 348.23964 721.47578 351.31514 711.03125 354.375 C 712.98932 327.75909 714.92848 301.14456 716.875 274.53125 L 712.125 273.28125 C 699.88091 299.1682 687.61208 325.04415 675.375 350.9375 C 665.31729 323.67464 655.29886 296.39458 645.25 269.125 L 640.4375 269.65625 C 636.70212 296.06204 632.94536 322.4653 629.21875 348.875 C 616.29696 348.27545 603.38133 347.70947 590.46875 347.125 L 587.6875 347 L 587.84375 349.78125 C 588.29407 357.77059 588.73875 365.73107 589.1875 373.71875 C 574.93702 377.10446 560.6762 380.5344 546.4375 383.9375 C 544.26746 363.18518 542.14817 342.42005 540 321.65625 L 539.75 319.375 L 537.4375 319.40625 L 493.4375 320.3125 L 491.3125 320.34375 L 491.03125 322.46875 L 483.21875 381.46875 L 483.15625 381.84375 L 483.21875 382.21875 C 483.54635 384.02884 483.23195 384.5932 483.15625 384.6875 C 483.08055 384.7818 482.77328 384.99725 481.75 385.0625 C 479.70345 385.19299 476.12146 384.30112 472.71875 384.53125 L 470 384.71875 L 470.40625 387.40625 C 471.94752 397.74027 473.43267 408.08731 475 418.4375 C 459.79731 422.48093 444.58521 426.50319 429.375 430.5625 C 425.69497 411.02572 422.04664 391.47979 418.375 371.9375 L 417.96875 369.78125 L 415.75 369.90625 L 374.5625 372.53125 L 372.40625 372.6875 L 372.21875 374.84375 L 367.75 430.09375 L 367.75 430.28125 L 367.75 430.5 C 367.8383 431.60353 367.759 431.51863 367.4375 431.75 C 367.11649 431.98137 366.11254 432.29816 364.75 432.4375 C 362.06733 432.71184 358.38425 432.20765 355.0625 433.71875 C 353.03591 433.91933 351.16198 434.77114 350.25 436.28125 C 349.1774 438.05732 349.14332 439.90449 349.21875 441.6875 C 349.33464 444.42685 349.61391 446.98976 349.625 448.75 C 323.46754 451.17059 297.29497 453.51677 271.125 455.90625 L 269.0625 456.09375 L 268.84375 458.15625 C 266.96334 475.91294 256.98395 492.59663 242.40625 502.875 C 214.70843 508.13122 186.39392 511.2109 158.25 515.28125 C 131.06337 425.53782 103.92152 335.77997 76.75 246.03125 C 99.372692 239.63866 121.99659 233.25931 144.625 226.875 L 144.8125 226.84375 L 144.96875 226.75 C 155.32667 222.12889 167.28373 225.35545 176.3125 232.03125 C 198.42152 248.36341 213.41433 274.65743 216.65625 302.03125 L 216.65625 302.0625 C 219.25504 322.15551 210.65292 343.59007 193.53125 354.625 L 188.15625 358.0625 L 194.4375 359.1875 C 209.6481 361.88184 224.00265 369.21576 235.59375 379.28125 L 240.1875 383.28125 L 239.71875 377.21875 C 235.12649 317.05206 230.53167 256.88553 225.9375 196.71875 C 244.95324 195.48863 263.96107 194.19834 282.96875 192.96875 C 286.41433 266.00032 289.86351 339.03144 293.3125 412.0625 L 293.4375 414.59375 L 295.96875 414.4375 L 324.59375 412.75 L 326.65625 412.625 L 326.90625 410.5625 C 337.28913 324.36412 347.67481 238.16613 358.0625 151.96875 C 383.44872 148.79681 408.85286 145.69792 434.25 142.59375 C 441.25892 190.15866 448.29689 237.71839 455.3125 285.28125 L 460.25 285.375 C 472.15752 221.89569 484.05258 158.41416 495.96875 94.9375 C 521.66209 92.405868 547.36381 89.924395 573.0625 87.40625 z M 523.84375 188.125 C 516.98266 217.38226 510.17986 246.64844 503.34375 275.90625 L 502.46875 279.65625 L 506.25 278.9375 L 536.59375 273.15625 L 538.875 272.71875 L 538.59375 270.375 L 528.75 188.375 L 523.84375 188.125 z M 525.5 203.03125 L 533.375 268.65625 L 509.09375 273.28125 C 514.56309 249.86334 520.0228 226.44392 525.5 203.03125 z M 395.71875 243.4375 L 390.8125 243.65625 L 378.46875 329.4375 L 377.96875 332.875 L 381.40625 332.25 L 412.71875 326.46875 L 415.28125 325.96875 L 414.6875 323.4375 L 395.71875 243.4375 z M 143.9375 256.28125 C 138.78899 256.36345 133.9598 258.40805 130.09375 261.5 L 128.875 262.46875 L 129.21875 264 C 135.48028 290.57849 143.22762 317.16033 150.1875 343.59375 L 150.875 346.3125 L 153.5 345.3125 C 160.97884 342.3991 167.88547 337.95581 173.28125 331.71875 C 173.29125 331.70755 173.3026 331.6987 173.3125 331.6875 C 179.45908 324.75715 181.70384 316.10637 181.40625 307.5625 C 181.10867 299.01903 178.33999 290.51632 174.40625 283.28125 C 174.40025 283.26945 174.3811 283.2618 174.375 283.25 C 171.42671 277.60931 167.85658 271.17362 163.03125 265.9375 C 158.19578 260.69038 151.92897 256.59416 144.0625 256.28125 L 144 256.28125 L 143.9375 256.28125 z M 393.875 257.34375 L 409.21875 322 L 383.90625 326.6875 L 393.875 257.34375 z M 143.875 261.28125 C 143.8964 261.2821 143.9162 261.28033 143.9375 261.28125 C 150.17763 261.54949 155.08146 264.68736 159.34375 269.3125 C 163.62062 273.95346 167.06946 280.04506 169.96875 285.59375 L 169.96875 285.625 L 170 285.625 C 173.62189 292.276 176.14211 300.16657 176.40625 307.75 C 176.67039 315.33343 174.73952 322.55057 169.53125 328.40625 L 169.5 328.4375 C 165.32168 333.27716 160.05167 336.83781 154.21875 339.46875 C 147.59563 314.49281 140.45187 289.50273 134.53125 264.625 C 137.35466 262.6963 140.54114 261.36212 143.875 261.28125 z M 169.6875 386.875 C 166.6579 386.871 163.70482 387.16855 160.8125 387.53125 L 157.96875 387.875 L 158.71875 390.65625 C 166.14424 418.5157 174.14176 446.18717 182.03125 473.875 L 182.65625 476.0625 L 184.90625 475.65625 C 189.28302 474.8165 193.76855 473.5695 197.96875 472 C 198.00875 471.9872 198.05375 471.98165 198.09375 471.96875 C 205.91341 469.44268 213.50318 464.78535 219.03125 458.4375 C 224.58762 452.05716 228.05827 443.84612 227.1875 434.65625 C 224.29441 406.72713 196.72087 386.72108 169.6875 386.875 z M 169.6875 391.875 C 194.20969 391.73538 219.60955 410.26933 222.1875 435.15625 C 222.91604 442.84507 220.10215 449.58455 215.25 455.15625 C 210.39785 460.72795 203.50527 464.9972 196.46875 467.25 L 196.40625 467.28125 L 196.34375 467.28125 C 193.11178 468.49574 189.63866 469.45627 186.1875 470.21875 C 178.78203 444.24955 171.32673 418.29758 164.34375 392.25 C 166.13197 392.07862 167.93304 391.87268 169.6875 391.875 z " xlink:href="#path3830" style="fill: none; stroke: rgb(0, 0, 0); stroke-width: 5; stroke-linecap: butt; stroke-linejoin: miter; stroke-miterlimit: 4; stroke-opacity: 1; stroke-dasharray: none;" id="path3903" inkscape:href="#path3830" d="m 577.75,81.9375 -2.5625,0.21875 -2.0625,0.1875 -0.0312,0 c -26.49807,2.596817 -52.99934,5.168133 -79.5,7.78125 l -1.875,0.1875 -0.34375,1.84375 C 480.26178,151.35306 469.16494,210.55206 458.0625,269.75 451.65344,226.31263 445.24392,182.87527 438.84375,139.4375 l -0.34375,-2.40625 -2.4375,0.3125 c -26.85873,3.28175 -53.71069,6.57956 -80.5625,9.9375 l -1.9375,0.21875 -0.21875,1.9375 c -10.3816,86.14528 -20.74861,172.29199 -31.125,258.4375 l -24.03125,1.40625 C 294.73836,336.24993 291.28909,263.21866 287.84375,190.1875 l -0.125,-2.53125 -2.53125,0.15625 c -20.70396,1.33465 -41.39935,2.72846 -62.09375,4.0625 l -2.53125,0.15625 0.1875,2.53125 c 4.5171,59.1556 9.01632,118.31277 13.53125,177.46875 -9.96721,-7.67233 -21.46377,-13.44504 -33.8125,-16.46875 15.98113,-12.77858 23.72189,-33.93305 21.125,-54.09375 -0.001,-0.0102 0.001,-0.0211 0,-0.0312 -3.41597,-28.76959 -18.9902,-56.20091 -42.28125,-73.40625 -10.02519,-7.41255 -23.70898,-11.31283 -36.0625,-5.96875 -23.44809,6.61557 -46.895598,13.21569 -70.34375,19.84375 l -2.4375,0.6875 0.71875,2.4375 c 27.623184,91.23993 55.23586,182.48298 82.875,273.71875 l 0.625,2.0625 2.15625,-0.3125 c 28.90293,-4.23882 58.20122,-7.27101 87.0625,-12.78125 l 0.53125,-0.125 0.4375,-0.28125 c 15.45962,-10.70404 26.03624,-27.94336 28.625,-46.59375 26.24573,-2.39358 52.49868,-4.72178 78.75,-7.15625 l 1.6875,-0.15625 0.5,-1.625 c 1.08239,-3.66641 -0.10031,-7.48141 -0.21875,-10.28125 -0.0592,-1.39992 0.16365,-2.40978 0.3125,-2.65625 0.14885,-0.24647 0.0243,-0.36716 1.34375,-0.3125 l 0.625,0.0312 0.5625,-0.28125 c 1.14506,-0.54519 4.79801,-0.52518 8.21875,-0.875 1.71037,-0.17491 3.46311,-0.44101 5.0625,-1.59375 1.5005,-1.08147 2.3842,-3.15159 2.34375,-5.3125 l 0.0625,0 4.28125,-53.09375 36.8125,-2.34375 c 3.69734,19.68618 7.38269,39.37495 11.09375,59.0625 l 0.5,2.65625 2.625,-0.71875 c 16.78599,-4.48821 33.60222,-8.90031 50.40625,-13.375 l 2.15625,-0.5625 -0.34375,-2.21875 c -1.53188,-10.04294 -2.97583,-20.11944 -4.46875,-30.1875 1.90343,0.20193 4.02925,0.4541 6.25,0.3125 1.69499,-0.10808 3.67413,-0.56771 5,-2.21875 1.20951,-1.50613 1.43576,-3.56021 1.125,-5.84375 l 7.5,-56.6875 39.5625,-0.8125 c 2.16247,20.93352 4.27261,41.87331 6.46875,62.8125 l 0.3125,2.84375 2.78125,-0.65625 c 15.8688,-3.7889 31.69749,-7.61059 47.5625,-11.375 l 2.0625,-0.5 -0.125,-2.0625 C 593.87785,367.77883 593.43754,360.00061 593,352.25 c 12.75325,0.57323 25.50757,1.12193 38.25,1.71875 l 2.28125,0.0937 0.3125,-2.25 c 3.36914,-23.88615 6.77408,-47.76972 10.15625,-71.65625 9.58712,26.0289 19.14403,52.06868 28.75,78.09375 l 2.0625,5.5625 2.53125,-5.375 c 11.17304,-23.65079 22.37349,-47.29168 33.5625,-70.9375 -1.70387,23.36561 -3.4036,46.73211 -5.125,70.09375 l -0.25,3.59375 3.4375,-1 c 12.15472,-3.55303 24.29258,-7.14758 36.4375,-10.6875 l 1.65625,-0.5 0.15625,-1.6875 c 6.44855,-75.62393 12.90023,-151.24708 19.3125,-226.875 l 0.21875,-2.5 -2.53125,-0.21875 C 750.98002,116.67216 737.74007,115.61517 724.5,114.5625 l -1.9375,-0.15625 -0.625,1.875 c -12.62053,37.80614 -25.07613,75.62953 -38.3125,113.125 -11.12236,-40.70233 -21.97698,-81.502 -32.875,-122.28125 l -0.4375,-1.71875 -1.78125,-0.125 c -14.11628,-0.99612 -28.23495,-2.0811 -42.375,-3.0625 l -2.4375,-0.15625 -0.25,2.40625 C 598.46675,157.1512 593.41284,209.82118 587.9375,262.4375 584.59454,203.12524 581.26641,143.81231 577.90625,84.5 L 577.75,81.9375 z m -4.6875,5.46875 c 3.905,68.9459 7.76462,137.89564 11.65625,206.84375 l 5,0.125 c 6.76619,-62.2773 12.61493,-124.63304 18.53125,-186.96875 12.71045,0.89261 25.42811,1.84554 38.15625,2.75 11.43862,42.81315 22.7679,85.65148 34.5,128.40625 L 683,246.21875 685.65625,238.75 c 14.06655,-39.44737 27.14952,-79.2973 40.40625,-119.03125 11.74984,0.93453 23.49839,1.88233 35.25,2.8125 -6.29372,74.21941 -12.60884,148.43887 -18.9375,222.65625 -10.4568,3.05214 -20.89922,6.12764 -31.34375,9.1875 1.95807,-26.61591 3.89723,-53.23044 5.84375,-79.84375 l -4.75,-1.25 c -12.24409,25.88695 -24.51292,51.7629 -36.75,77.65625 -10.05771,-27.26286 -20.07614,-54.54292 -30.125,-81.8125 l -4.8125,0.53125 c -3.73538,26.40579 -7.49214,52.80905 -11.21875,79.21875 -12.92179,-0.59955 -25.83742,-1.16553 -38.75,-1.75 L 587.6875,347 l 0.15625,2.78125 c 0.45032,7.98934 0.895,15.94982 1.34375,23.9375 -14.25048,3.38571 -28.5113,6.81565 -42.75,10.21875 -2.17004,-20.75232 -4.28933,-41.51745 -6.4375,-62.28125 l -0.25,-2.28125 -2.3125,0.0312 -44,0.90625 -2.125,0.0312 -0.28125,2.125 -7.8125,59 -0.0625,0.375 0.0625,0.375 c 0.3276,1.81009 0.0132,2.37445 -0.0625,2.46875 -0.0757,0.0943 -0.38297,0.30975 -1.40625,0.375 -2.04655,0.13049 -5.62854,-0.76138 -9.03125,-0.53125 l -2.71875,0.1875 0.40625,2.6875 c 1.54127,10.33402 3.02642,20.68106 4.59375,31.03125 -15.20269,4.04343 -30.41479,8.06569 -45.625,12.125 -3.68003,-19.53678 -7.32836,-39.08271 -11,-58.625 l -0.40625,-2.15625 -2.21875,0.125 -41.1875,2.625 -2.15625,0.15625 -0.1875,2.15625 -4.46875,55.25 0,0.1875 0,0.21875 c 0.0883,1.10353 0.009,1.01863 -0.3125,1.25 -0.32101,0.23137 -1.32496,0.54816 -2.6875,0.6875 -2.68267,0.27434 -6.36575,-0.22985 -9.6875,1.28125 -2.02659,0.20058 -3.90052,1.05239 -4.8125,2.5625 -1.0726,1.77607 -1.10668,3.62324 -1.03125,5.40625 0.11589,2.73935 0.39516,5.30226 0.40625,7.0625 -26.15746,2.42059 -52.33003,4.76677 -78.5,7.15625 l -2.0625,0.1875 -0.21875,2.0625 c -1.88041,17.75669 -11.8598,34.44038 -26.4375,44.71875 -27.69782,5.25622 -56.01233,8.3359 -84.15625,12.40625 -27.18663,-89.74343 -54.32848,-179.50128 -81.5,-269.25 22.622692,-6.39259 45.24659,-12.77194 67.875,-19.15625 l 0.1875,-0.0312 0.15625,-0.0937 c 10.35792,-4.62111 22.31498,-1.39455 31.34375,5.28125 22.10902,16.33216 37.10183,42.62618 40.34375,70 l 0,0.0312 c 2.59879,20.09301 -6.00333,41.52757 -23.125,52.5625 l -5.375,3.4375 6.28125,1.125 c 15.2106,2.69434 29.56515,10.02826 41.15625,20.09375 l 4.59375,4 -0.46875,-6.0625 c -4.59226,-60.16669 -9.18708,-120.33322 -13.78125,-180.5 19.01574,-1.23012 38.02357,-2.52041 57.03125,-3.75 3.44558,73.03157 6.89476,146.06269 10.34375,219.09375 l 0.125,2.53125 2.53125,-0.15625 28.625,-1.6875 2.0625,-0.125 0.25,-2.0625 c 10.38288,-86.19838 20.76856,-172.39637 31.15625,-258.59375 25.38622,-3.17194 50.79036,-6.27083 76.1875,-9.375 7.00892,47.56491 14.04689,95.12464 21.0625,142.6875 l 4.9375,0.0937 c 11.90752,-63.47931 23.80258,-126.96084 35.71875,-190.4375 25.69334,-2.531632 51.39506,-5.013105 77.09375,-7.53125 z M 523.84375,188.125 c -6.86109,29.25726 -13.66389,58.52344 -20.5,87.78125 l -0.875,3.75 3.78125,-0.71875 30.34375,-5.78125 2.28125,-0.4375 -0.28125,-2.34375 -9.84375,-82 -4.90625,-0.25 z m 1.65625,14.90625 7.875,65.625 -24.28125,4.625 c 5.46934,-23.41791 10.92905,-46.83733 16.40625,-70.25 z m -129.78125,40.40625 -4.90625,0.21875 -12.34375,85.78125 -0.5,3.4375 3.4375,-0.625 31.3125,-5.78125 2.5625,-0.5 -0.59375,-2.53125 -18.96875,-80 z M 143.9375,256.28125 c -5.14851,0.0822 -9.9777,2.1268 -13.84375,5.21875 L 128.875,262.46875 129.21875,264 c 6.26153,26.57849 14.00887,53.16033 20.96875,79.59375 l 0.6875,2.71875 2.625,-1 c 7.47884,-2.9134 14.38547,-7.35669 19.78125,-13.59375 0.01,-0.0112 0.0214,-0.0201 0.0312,-0.0312 6.14658,-6.93035 8.39134,-15.58113 8.09375,-24.125 -0.29758,-8.54347 -3.06626,-17.04618 -7,-24.28125 -0.006,-0.0118 -0.0251,-0.0195 -0.0312,-0.0312 -2.94829,-5.64069 -6.51842,-12.07638 -11.34375,-17.3125 -4.83547,-5.24712 -11.10228,-9.34334 -18.96875,-9.65625 l -0.0625,0 -0.0625,0 z m 249.9375,1.0625 15.34375,64.65625 -25.3125,4.6875 9.96875,-69.34375 z m -250,3.9375 c 0.0214,8.5e-4 0.0412,-9.2e-4 0.0625,0 6.24013,0.26824 11.14396,3.40611 15.40625,8.03125 4.27687,4.64096 7.72571,10.73256 10.625,16.28125 l 0,0.0312 0.0312,0 c 3.62189,6.651 6.14211,14.54157 6.40625,22.125 0.26414,7.58343 -1.66673,14.80057 -6.875,20.65625 l -0.0312,0.0312 c -4.17832,4.83966 -9.44833,8.40031 -15.28125,11.03125 -6.62312,-24.97594 -13.76688,-49.96602 -19.6875,-74.84375 2.82341,-1.9287 6.00989,-3.26288 9.34375,-3.34375 z M 169.6875,386.875 c -3.0296,-0.004 -5.98268,0.29355 -8.875,0.65625 l -2.84375,0.34375 0.75,2.78125 c 7.42549,27.85945 15.42301,55.53092 23.3125,83.21875 l 0.625,2.1875 2.25,-0.40625 c 4.37677,-0.83975 8.8623,-2.08675 13.0625,-3.65625 0.04,-0.0128 0.085,-0.0183 0.125,-0.0312 7.81966,-2.52607 15.40943,-7.1834 20.9375,-13.53125 5.55637,-6.38034 9.02702,-14.59138 8.15625,-23.78125 -2.89309,-27.92912 -30.46663,-47.93517 -57.5,-47.78125 z m 0,5 c 24.52219,-0.13962 49.92205,18.39433 52.5,43.28125 0.72854,7.68882 -2.08535,14.4283 -6.9375,20 -4.85215,5.5717 -11.74473,9.84095 -18.78125,12.09375 l -0.0625,0.0312 -0.0625,0 c -3.23197,1.21449 -6.70509,2.17502 -10.15625,2.9375 -7.40547,-25.9692 -14.86077,-51.92117 -21.84375,-77.96875 1.78822,-0.17138 3.58929,-0.37732 5.34375,-0.375 z"/>
    <path style="font-size: medium; font-style: normal; font-variant: normal; font-weight: normal; font-stretch: normal; text-indent: 0pt; text-align: start; text-decoration: none; line-height: normal; letter-spacing: normal; word-spacing: normal; text-transform: none; direction: ltr; text-anchor: start; color: rgb(0, 0, 0); fill: rgb(0, 0, 0); fill-opacity: 1; stroke: rgb(42, 83, 255); stroke-width: 5; stroke-opacity: 1; marker: none; visibility: visible; display: inline; overflow: visible; font-family: Bitstream Vera Sans;" d="m 577.75,81.9375 -2.5625,0.21875 -2.0625,0.1875 -0.0312,0 c -26.49807,2.596817 -52.99934,5.168133 -79.5,7.78125 l -1.875,0.1875 -0.34375,1.84375 C 480.26183,151.35306 469.16494,210.55206 458.0625,269.75 451.65344,226.31263 445.24392,182.87527 438.84375,139.4375 l -0.34375,-2.40625 -2.4375,0.3125 c -26.85873,3.28175 -53.71069,6.57956 -80.5625,9.9375 l -1.9375,0.21875 -0.21875,1.9375 c -10.3816,86.14528 -20.74861,172.29199 -31.125,258.4375 l -24.03125,1.40625 C 294.73836,336.24993 291.28909,263.21866 287.84375,190.1875 l -0.125,-2.53125 -2.53125,0.15625 c -20.70396,1.33465 -41.39935,2.72846 -62.09375,4.0625 l -2.53125,0.15625 0.1875,2.53125 c 4.5171,59.1556 9.01632,118.31277 13.53125,177.46875 -9.96721,-7.67233 -21.46377,-13.44504 -33.8125,-16.46875 15.98113,-12.77858 23.72189,-33.93305 21.125,-54.09375 -0.001,-0.0102 0.001,-0.0211 0,-0.0312 -3.41597,-28.76959 -18.9902,-56.20091 -42.28125,-73.40625 -10.02519,-7.41255 -23.70898,-11.31283 -36.0625,-5.96875 -23.44809,6.61557 -46.895598,13.21569 -70.34375,19.84375 l -2.4375,0.6875 0.71875,2.4375 c 27.623184,91.23993 55.23586,182.48298 82.875,273.71875 l 0.625,2.0625 2.15625,-0.3125 c 28.90293,-4.23882 58.20122,-7.27101 87.0625,-12.78125 l 0.53125,-0.125 0.4375,-0.28125 c 15.45962,-10.70404 26.03624,-27.94336 28.625,-46.59375 26.24573,-2.39358 52.49868,-4.72178 78.75,-7.15625 l 1.6875,-0.15625 0.5,-1.625 c 1.08239,-3.66641 -0.10031,-7.48141 -0.21875,-10.28125 -0.0592,-1.39992 0.16365,-2.40978 0.3125,-2.65625 0.14885,-0.24647 0.0243,-0.36716 1.34375,-0.3125 l 0.625,0.0312 0.5625,-0.28125 c 1.14506,-0.54519 4.79801,-0.52518 8.21875,-0.875 1.71037,-0.17491 3.46311,-0.44101 5.0625,-1.59375 1.5005,-1.08147 2.3842,-3.15159 2.34375,-5.3125 l 0.0625,0 4.28125,-53.09375 36.8125,-2.34375 c 3.69734,19.68618 7.38269,39.37495 11.09375,59.0625 l 0.5,2.65625 2.625,-0.71875 c 16.78599,-4.48821 33.60222,-8.90031 50.40625,-13.375 l 2.15625,-0.5625 -0.34375,-2.21875 c -1.53188,-10.04294 -2.97583,-20.11944 -4.46875,-30.1875 1.90343,0.20193 4.02925,0.4541 6.25,0.3125 1.69499,-0.10808 3.67413,-0.56771 5,-2.21875 1.20951,-1.50613 1.43576,-3.56021 1.125,-5.84375 l 7.5,-56.6875 39.5625,-0.8125 c 2.16247,20.93352 4.27261,41.87331 6.46875,62.8125 l 0.3125,2.84375 2.78125,-0.65625 c 15.8688,-3.7889 31.69749,-7.61059 47.5625,-11.375 l 2.0625,-0.5 -0.125,-2.0625 C 593.87785,367.77883 593.43754,360.00061 593,352.25 c 12.75325,0.57323 25.50757,1.12193 38.25,1.71875 l 2.28125,0.0937 0.3125,-2.25 C 637.21289,327.9263 640.61783,304.04273 644,280.1562 c 9.58712,26.0289 19.14403,52.06868 28.75,78.09375 l 2.0625,5.5625 2.53125,-5.375 c 11.17304,-23.65079 22.37349,-47.29168 33.5625,-70.9375 -1.70387,23.36561 -3.4036,46.73211 -5.125,70.09375 l -0.25,3.59375 3.4375,-1 c 12.15472,-3.55303 24.29258,-7.14758 36.4375,-10.6875 l 1.65625,-0.5 0.15625,-1.6875 c 6.44855,-75.62393 12.90023,-151.24708 19.3125,-226.875 l 0.21875,-2.5 -2.53125,-0.21875 C 750.98002,116.67211 737.74007,115.61517 724.5,114.5625 l -1.9375,-0.15625 -0.625,1.875 c -12.62053,37.80614 -25.07613,75.62953 -38.3125,113.125 -11.12236,-40.70233 -21.97698,-81.502 -32.875,-122.28125 l -0.4375,-1.71875 -1.78125,-0.125 c -14.11628,-0.99612 -28.23495,-2.0811 -42.375,-3.0625 l -2.4375,-0.15625 -0.25,2.40625 C 598.46675,157.1512 593.41284,209.82118 587.9375,262.4375 584.59454,203.12524 581.26641,143.81231 577.90625,84.5 L 577.75,81.9375 z m -4.6875,5.46875 c 3.905,68.9459 7.76462,137.89564 11.65625,206.84375 l 5,0.125 c 6.76619,-62.2773 12.61493,-124.63304 18.53125,-186.96875 12.71045,0.89261 25.42811,1.84554 38.15625,2.75 11.43862,42.81315 22.7679,85.65148 34.5,128.40625 L 683,246.21875 685.65625,238.75 c 14.06655,-39.44737 27.14952,-79.2973 40.40625,-119.03125 11.74984,0.93453 23.49839,1.88233 35.25,2.8125 -6.29372,74.21941 -12.60884,148.43887 -18.9375,222.65625 -10.4568,3.05214 -20.89922,6.12764 -31.34375,9.1875 1.95807,-26.61591 3.89723,-53.23044 5.84375,-79.84375 l -4.75,-1.25 c -12.24409,25.88695 -24.51292,51.7629 -36.75,77.65625 -10.05771,-27.26286 -20.07614,-54.54292 -30.125,-81.8125 l -4.8125,0.53125 c -3.73538,26.40579 -7.49214,52.80905 -11.21875,79.21875 -12.92179,-0.59955 -25.83742,-1.16553 -38.75,-1.75 L 587.6875,347 l 0.15625,2.78125 c 0.45032,7.98934 0.895,15.94982 1.34375,23.9375 -14.25048,3.38571 -28.5113,6.81565 -42.75,10.21875 -2.17004,-20.75232 -4.28933,-41.51745 -6.4375,-62.28125 l -0.25,-2.28125 -2.3125,0.0312 -44,0.90625 -2.125,0.0312 -0.28125,2.125 -7.8125,59 -0.0625,0.375 0.0625,0.375 c 0.3276,1.81009 0.0132,2.37445 -0.0625,2.46875 -0.0757,0.0943 -0.38297,0.30975 -1.40625,0.375 -2.04655,0.13049 -5.62854,-0.76138 -9.03125,-0.53125 l -2.71875,0.1875 0.40625,2.6875 c 1.54127,10.33402 3.02642,20.68106 4.59375,31.03125 -15.20269,4.04343 -30.41479,8.06569 -45.625,12.125 -3.68003,-19.53678 -7.32836,-39.08271 -11,-58.625 l -0.40625,-2.15625 -2.21875,0.125 -41.1875,2.625 -2.15625,0.15625 -0.1875,2.15625 -4.46875,55.25 0,0.1875 0,0.21875 c 0.0883,1.10353 0.009,1.01863 -0.3125,1.25 -0.32101,0.23137 -1.32496,0.54816 -2.6875,0.6875 -2.68267,0.27434 -6.36575,-0.22985 -9.6875,1.28125 -2.02659,0.20058 -3.90052,1.05239 -4.8125,2.5625 -1.0726,1.77607 -1.10668,3.62324 -1.03125,5.40625 0.11589,2.73935 0.39516,5.30226 0.40625,7.0625 -26.15746,2.42059 -52.33003,4.76677 -78.5,7.15625 l -2.0625,0.1875 -0.21875,2.0625 c -1.88041,17.75669 -11.8598,34.44038 -26.4375,44.71875 -27.69782,5.25622 -56.01233,8.3359 -84.15625,12.40625 -27.18663,-89.74343 -54.32848,-179.50128 -81.5,-269.25 22.622692,-6.39259 45.24659,-12.77194 67.875,-19.15625 l 0.1875,-0.0312 0.15625,-0.0937 c 10.35792,-4.62111 22.31498,-1.39455 31.34375,5.28125 22.10902,16.33216 37.10183,42.62618 40.34375,70 l 0,0.0312 c 2.59879,20.09301 -6.00333,41.52757 -23.125,52.5625 l -5.375,3.4375 6.28125,1.125 c 15.2106,2.69434 29.56515,10.02826 41.15625,20.09375 l 4.59375,4 -0.46875,-6.0625 c -4.59226,-60.16669 -9.18708,-120.33322 -13.78125,-180.5 19.01574,-1.23012 38.02357,-2.52041 57.03125,-3.75 3.44558,73.03157 6.89476,146.06269 10.34375,219.09375 l 0.125,2.53125 2.53125,-0.15625 28.625,-1.6875 2.0625,-0.125 0.25,-2.0625 c 10.38288,-86.19838 20.76856,-172.39637 31.15625,-258.59375 25.38622,-3.17194 50.79036,-6.27083 76.1875,-9.375 7.00892,47.56491 14.04689,95.12464 21.0625,142.6875 l 4.9375,0.0937 c 11.90752,-63.47931 23.80258,-126.96084 35.71875,-190.4375 25.69334,-2.531632 51.39506,-5.013105 77.09375,-7.53125 z M 523.84375,188.125 c -6.86109,29.25726 -13.66389,58.52344 -20.5,87.78125 l -0.875,3.75 3.78125,-0.71875 30.34375,-5.78125 2.28125,-0.4375 -0.28125,-2.34375 -9.84375,-82 -4.90625,-0.25 z m 1.65625,14.90625 7.875,65.625 -24.28125,4.625 c 5.46934,-23.41791 10.92905,-46.83733 16.40625,-70.25 z m -129.78125,40.40625 -4.90625,0.21875 -12.34375,85.78125 -0.5,3.4375 3.4375,-0.625 31.3125,-5.78125 2.5625,-0.5 -0.59375,-2.53125 -18.96875,-80 z M 143.9375,256.28125 c -5.14851,0.0822 -9.9777,2.1268 -13.84375,5.21875 L 128.875,262.46875 129.21875,264 c 6.26153,26.57849 14.00887,53.16033 20.96875,79.59375 l 0.6875,2.71875 2.625,-1 c 7.47884,-2.9134 14.38547,-7.35669 19.78125,-13.59375 0.01,-0.0112 0.0213,-0.02 0.0312,-0.0312 6.14658,-6.93035 8.39134,-15.58113 8.09375,-24.125 -0.29758,-8.54347 -3.06626,-17.04618 -7,-24.28125 -0.006,-0.0118 -0.0251,-0.0194 -0.0312,-0.0312 -2.94829,-5.64069 -6.51842,-12.07638 -11.34375,-17.3125 -4.83547,-5.24712 -11.10228,-9.34334 -18.96875,-9.65625 l -0.0625,0 -0.0625,0 z m 249.9375,1.0625 15.34375,64.65625 -25.3125,4.6875 9.96875,-69.34375 z m -250,3.9375 c 0.0214,8.5e-4 0.0412,-9.2e-4 0.0625,0 6.24013,0.26824 11.14396,3.40611 15.40625,8.03125 4.27687,4.64096 7.72571,10.73256 10.625,16.28125 l 0,0.0312 0.0312,0 c 3.62189,6.651 6.14211,14.54157 6.40625,22.125 0.26414,7.58343 -1.66673,14.80057 -6.875,20.65625 l -0.0312,0.0312 c -4.17832,4.83966 -9.44833,8.40031 -15.28125,11.03125 -6.62312,-24.97594 -13.76688,-49.96602 -19.6875,-74.84375 2.82341,-1.9287 6.00989,-3.26288 9.34375,-3.34375 z M 169.6875,386.875 c -3.0296,-0.004 -5.98268,0.29355 -8.875,0.65625 l -2.84375,0.34375 0.75,2.78125 c 7.42549,27.85945 15.42301,55.53092 23.3125,83.21875 l 0.625,2.1875 2.25,-0.40625 c 4.37677,-0.83975 8.8623,-2.08675 13.0625,-3.65625 0.04,-0.0128 0.085,-0.0183 0.125,-0.0312 7.81966,-2.52607 15.40943,-7.1834 20.9375,-13.53125 5.55637,-6.38034 9.02702,-14.59138 8.15625,-23.78125 -2.89309,-27.92912 -30.46663,-47.93517 -57.5,-47.78125 z m 0,5 c 24.52219,-0.13962 49.92205,18.39433 52.5,43.28125 0.72854,7.68882 -2.08535,14.4283 -6.9375,20 -4.85215,5.5717 -11.74473,9.84095 -18.78125,12.09375 l -0.0625,0.0312 -0.0625,0 c -3.23197,1.21449 -6.70509,2.17502 -10.15625,2.9375 -7.40547,-25.9692 -14.86077,-51.92117 -21.84375,-77.96875 1.78822,-0.17138 3.58929,-0.37732 5.34375,-0.375 z" id="path3830"/>
  </g>
</svg>