<?xml version="1.0" encoding="UTF-8" standalone="no"?>
<!-- Created with Inkscape (http://www.inkscape.org/) -->
<svg xmlns:dc="http://purl.org/dc/elements/1.1/" xmlns:cc="http://creativecommons.org/ns#" xmlns:rdf="http://www.w3.org/1999/02/22-rdf-syntax-ns#" xmlns:svg="http://www.w3.org/2000/svg" xmlns="http://www.w3.org/2000/svg" xmlns:sodipodi="http://sodipodi.sourceforge.net/DTD/sodipodi-0.dtd" xmlns:inkscape="http://www.inkscape.org/namespaces/inkscape" width="150" height="127.63419" id="svg3884" version="1.1" inkscape:version="0.47pre4 r22446" sodipodi:docname="bulle2.svg">
  <defs id="defs3886">
    <inkscape:perspective sodipodi:type="inkscape:persp3d" inkscape:vp_x="0 : 526.18109 : 1" inkscape:vp_y="0 : 1000 : 0" inkscape:vp_z="744.09448 : 526.18109 : 1" inkscape:persp3d-origin="372.04724 : 350.78739 : 1" id="perspective3892"/>
    <inkscape:perspective id="perspective3875" inkscape:persp3d-origin="0.5 : 0.33333333 : 1" inkscape:vp_z="1 : 0.5 : 1" inkscape:vp_y="0 : 1000 : 0" inkscape:vp_x="0 : 0.5 : 1" sodipodi:type="inkscape:persp3d"/>
    <inkscape:perspective id="perspective3951" inkscape:persp3d-origin="0.5 : 0.33333333 : 1" inkscape:vp_z="1 : 0.5 : 1" inkscape:vp_y="0 : 1000 : 0" inkscape:vp_x="0 : 0.5 : 1" sodipodi:type="inkscape:persp3d"/>
    <inkscape:perspective id="perspective4006" inkscape:persp3d-origin="0.5 : 0.33333333 : 1" inkscape:vp_z="1 : 0.5 : 1" inkscape:vp_y="0 : 1000 : 0" inkscape:vp_x="0 : 0.5 : 1" sodipodi:type="inkscape:persp3d"/>
    <filter color-interpolation-filters="sRGB" inkscape:collect="always" id="filter3839" x="-0.11035714" width="1.2207143" y="-0.13148937" height="1.2629787">
      <feGaussianBlur inkscape:collect="always" stdDeviation="1.609375" id="feGaussianBlur3841"/>
    </filter>
    <inkscape:perspective id="perspective4061" inkscape:persp3d-origin="0.5 : 0.33333333 : 1" inkscape:vp_z="1 : 0.5 : 1" inkscape:vp_y="0 : 1000 : 0" inkscape:vp_x="0 : 0.5 : 1" sodipodi:type="inkscape:persp3d"/>
    <filter color-interpolation-filters="sRGB" inkscape:collect="always" id="filter3925" x="-0.10910156" width="1.2182031" y="-0.13331743" height="1.2666348">
      <feGaussianBlur inkscape:collect="always" stdDeviation="1.4546875" id="feGaussianBlur3927"/>
    </filter>
  </defs>
  <sodipodi:namedview id="base" pagecolor="#ffffff" bordercolor="#666666" borderopacity="1.0" inkscape:pageopacity="0.0" inkscape:pageshadow="2" inkscape:zoom="2.8" inkscape:cx="112.10469" inkscape:cy="54.991999" inkscape:document-units="px" inkscape:current-layer="layer1" showgrid="false" inkscape:window-width="1366" inkscape:window-height="693" inkscape:window-x="0" inkscape:window-y="24" inkscape:window-maximized="1"/>
  <metadata id="metadata3889">
    <rdf:RDF>
      <cc:Work rdf:about="">
        <dc:format>image/svg+xml</dc:format>
        <dc:type rdf:resource="http://purl.org/dc/dcmitype/StillImage"/>
        <dc:title/>
      </cc:Work>
    </rdf:RDF>
  </metadata>
  <g inkscape:label="Calque 1" inkscape:groupmode="layer" id="layer1" transform="translate(-270.714, -413.431)">
    <g id="g3938" transform="matrix(3.84788, 0, 0, 3.84788, -1177.57, -344.706)">
      <path id="path3897-9" d="m 381.875,200.51844 c -1.108,0 -2,0.8229 -2,1.84375 l 0,16.8125 c 0,1.02085 0.892,1.84375 2,1.84375 l 1.1875,0 c -0.44149,1.94591 -1.39306,3.82125 -2.3125,5.6875 2.3645,-1.62743 4.14796,-3.39999 5.6875,-5.6875 l 0.0937,0 23.3438,0 c 1.108,0 2,-0.8229 2,-1.84375 l 0,-16.8125 c 0,-1.02085 -0.892,-1.84375 -2,-1.84375 l -28,0 z" style="fill: rgb(122, 122, 122); fill-opacity: 1; stroke: none; filter: url(&quot;#filter3925&quot;);"/>
      <g id="g3935">
        <path style="fill: rgb(255, 255, 255); fill-opacity: 1; stroke: rgb(0, 0, 0); stroke-width: 0.259883; stroke-linecap: round; stroke-linejoin: round; stroke-opacity: 1;" d="m 380.625,198.375 c -1.108,0 -2,0.8229 -2,1.84375 l 0,16.8125 c 0,1.02085 0.892,1.84375 2,1.84375 l 1.1875,0 c -0.44149,1.94591 -1.39306,3.82125 -2.3125,5.6875 2.3645,-1.62743 4.14796,-3.39999 5.6875,-5.6875 l 0.0937,0 23.34375,0 c 1.108,0 2,-0.8229 2,-1.84375 l 0,-16.8125 c 0,-1.02085 -0.892,-1.84375 -2,-1.84375 l -28,0 z" id="path3897"/>
      </g>
    </g>
  </g>
</svg>